<svg width="24" height="25" viewBox="0 0 24 25" fill="none" xmlns="http://www.w3.org/2000/svg">
<path d="M6.96444 2.26045C5.6742 3.08937 4.80202 4.55261 4.80202 6.22489C4.80202 7.89716 5.6742 9.3604 6.98606 10.1893C4.77319 10.1893 3 8.41614 3 6.22489C3 5.17345 3.41768 4.16508 4.16116 3.4216C4.90463 2.67813 5.91301 2.26045 6.96444 2.26045ZM15.3042 3.34166L16.3349 4.37241L5.11197 15.5954L4.08121 14.5646L15.3042 3.34166ZM10.8496 5.09322L9.7828 4.42287L8.74483 5.14367L9.04757 3.9183L8.04565 3.15425L9.30706 3.06775L9.72513 1.87842L10.2081 3.05333L11.4551 3.07496L10.482 3.88947L10.8496 5.09322ZM8.47093 7.69533L7.63479 7.16914L6.82749 7.73137L7.07256 6.77991L6.28688 6.18164L7.26718 6.11676L7.59154 5.18692L7.95915 6.10235L8.93945 6.12397L8.1826 6.75107L8.47093 7.69533ZM15.2537 10.5497C15.2537 11.6012 14.836 12.6095 14.0926 13.353C13.3491 14.0965 12.3407 14.5142 11.2893 14.5142C10.4099 14.5142 9.59539 14.2258 8.93945 13.7429L14.4825 8.1999C14.9654 8.85583 15.2537 9.67034 15.2537 10.5497ZM12.0822 15.2926L14.0788 14.4637L13.9058 16.8784L12.0822 15.2926ZM15.2033 13.3465L16.0322 11.3498L17.618 13.1807L15.2033 13.3465ZM16.0322 9.77126L15.2105 7.76741L17.618 7.94041L16.0322 9.77126ZM8.49976 14.4637L10.4964 15.2926L8.67275 16.8712L8.49976 14.4637Z" fill="#4F4F4F"/>
</svg>
