<svg width="205" height="138" viewBox="0 0 205 138" fill="none" xmlns="http://www.w3.org/2000/svg">
<g clip-path="url(#clip0_529_10381)">
<g opacity="0.3">
<path d="M163.213 6.28293H99.5991V8.29091H163.213V6.28293Z" fill="#5FA3FA"/>
<path d="M163.213 11.3678H99.5991V13.3757H163.213V11.3678Z" fill="#5FA3FA"/>
<path d="M163.213 16.4525H99.5991V18.4605H163.213V16.4525Z" fill="#5FA3FA"/>
<path d="M163.213 21.5371H99.5991V23.5451H163.213V21.5371Z" fill="#5FA3FA"/>
<path d="M163.213 26.6219H99.5991V28.6299H163.213V26.6219Z" fill="#5FA3FA"/>
<path d="M163.213 31.7066H99.5991V33.7146H163.213V31.7066Z" fill="#5FA3FA"/>
<path d="M163.213 36.7914H99.5991V38.7994H163.213V36.7914Z" fill="#5FA3FA"/>
<path d="M163.213 41.8761H99.5991V43.8841H163.213V41.8761Z" fill="#5FA3FA"/>
<path d="M163.213 46.9608H99.5991V48.9687H163.213V46.9608Z" fill="#5FA3FA"/>
<path d="M163.213 52.0455H99.5991V54.0534H163.213V52.0455Z" fill="#5FA3FA"/>
<path d="M163.213 57.1626H99.5991V59.1706H163.213V57.1626Z" fill="#5FA3FA"/>
<path d="M163.213 62.2474H99.5991V64.2554H163.213V62.2474Z" fill="#5FA3FA"/>
<path d="M163.213 67.332H99.5991V69.34H163.213V67.332Z" fill="#5FA3FA"/>
</g>
<path d="M108.317 4.79318H107.474V80.9669H108.317V4.79318Z" fill="white"/>
<path d="M155.339 4.79315H154.497V80.9668H155.339V4.79315Z" fill="white"/>
<path d="M147.464 56.9034H134.696V80.9992H147.464V56.9034Z" fill="#75CFBC"/>
<path d="M137.483 78.3759C137.483 78.3759 133.95 65.8747 131.131 60.4337L137.677 57.8427H144.288C144.288 57.8427 146.751 60.9195 148.047 71.0242L137.483 78.3759Z" fill="black"/>
<path d="M131.131 60.2069C131.131 60.2069 128.603 60.6603 130.45 64.8382C132.816 61.6967 134.923 59.0086 137.645 57.8751L131.131 60.2069Z" fill="#DD464D"/>
<path d="M155.014 56.1585H148.208V82.91H155.014V56.1585Z" fill="#EFBE2E"/>
<path d="M148.209 56.1585H146.589L141.501 66.1661L133.95 68.5627V82.91H148.209V56.1585Z" fill="#EFBE2E"/>
<path opacity="0.5" d="M148.209 56.1585H146.589L141.501 66.1661L133.95 68.5627V82.91H148.209V56.1585Z" fill="#EFBE2E"/>
<path d="M154.236 74.6513H149.019V82.1003H154.236V74.6513Z" fill="white"/>
<path d="M154.236 58.6523H149.019V59.8506H154.236V58.6523Z" fill="white"/>
<path d="M154.236 60.8546H149.019V61.6966H154.236V60.8546Z" fill="white"/>
<path d="M153.469 72.4301C154.494 71.4057 154.494 69.7447 153.469 68.7202C152.444 67.6957 150.782 67.6958 149.757 68.7202C148.732 69.7447 148.732 71.4057 149.757 72.4301C150.782 73.4546 152.444 73.4546 153.469 72.4301Z" fill="white"/>
<path d="M151.612 72.6758C152.775 72.6758 153.718 71.7333 153.718 70.5707C153.718 69.408 152.775 68.4655 151.612 68.4655C150.448 68.4655 149.505 69.408 149.505 70.5707C149.505 71.7333 150.448 72.6758 151.612 72.6758Z" fill="black"/>
<path d="M170.408 85.3391H169.76V134.826H170.408V85.3391Z" fill="black"/>
<path d="M101.122 85.3391H100.474V134.826H101.122V85.3391Z" fill="black"/>
<path d="M175.852 82.9101H95.678V85.3391H175.852V82.9101Z" fill="#5FA3FA"/>
<path d="M118.168 122.325H78.34C75.2614 122.325 72.7336 119.831 72.7336 116.722V36.7267C72.7336 33.6499 75.229 31.1237 78.34 31.1237H118.168C121.246 31.1237 123.774 33.6175 123.774 36.7267V116.722C123.774 119.831 121.246 122.325 118.168 122.325Z" fill="white" stroke="black" stroke-width="0.279856" stroke-miterlimit="10"/>
<path d="M121.765 38.6375H74.7109V112.674H121.765V38.6375Z" fill="#441153"/>
<path d="M105.238 36.1438H91.3033C90.9469 36.1438 90.6228 35.8523 90.6228 35.4636C90.6228 35.1074 90.9145 34.7835 91.3033 34.7835H105.238C105.595 34.7835 105.919 35.075 105.919 35.4636C105.886 35.8523 105.595 36.1438 105.238 36.1438Z" fill="black"/>
<path d="M100.409 120.835H96.3259C95.1592 120.835 94.187 119.896 94.187 118.698V116.269C94.187 115.103 95.1268 114.131 96.3259 114.131H100.409C101.576 114.131 102.548 115.07 102.548 116.269V118.698C102.548 119.864 101.576 120.835 100.409 120.835Z" fill="black"/>
<path d="M123.936 52.0457H123.742V43.7223H123.936C124.26 43.7223 124.552 43.9814 124.552 44.3376V51.4627C124.552 51.7866 124.293 52.0457 123.936 52.0457Z" fill="black"/>
<path d="M72.4746 43.7223H72.6691V52.0457H72.4746C72.1505 52.0457 71.8589 51.7866 71.8589 51.4303V44.3052C71.8589 43.9814 72.1505 43.7223 72.4746 43.7223Z" fill="black"/>
<path d="M123.936 62.636H123.742V54.3127H123.936C124.26 54.3127 124.552 54.5717 124.552 54.928V62.0531C124.552 62.377 124.293 62.636 123.936 62.636Z" fill="black"/>
<path d="M133.075 106.617H98.9186C96.3261 106.617 94.1873 104.512 94.1873 101.889V76.9185C94.1873 74.3276 96.2937 72.19 98.9186 72.19H133.075C135.668 72.19 137.807 74.2952 137.807 76.9185V101.889C137.774 104.48 135.668 106.617 133.075 106.617Z" fill="#DD464D"/>
<path d="M127.048 86.6669V82.7805H117.942V80.2219H114.053V82.7805H104.947V86.6669H107.734C108.446 88.4482 110.002 91.6221 112.886 94.5369C111.331 95.4437 109.548 96.221 107.409 96.6744L108.22 100.464C111.331 99.7835 113.891 98.5852 115.997 97.1602C118.104 98.6176 120.664 99.8159 123.775 100.464L124.585 96.6744C122.479 96.221 120.664 95.4761 119.108 94.5369C121.992 91.6221 123.548 88.4482 124.261 86.6669H127.048ZM115.997 92.1726C114.02 90.2942 112.724 88.2215 111.946 86.6669H120.016C119.238 88.2215 117.974 90.2942 115.997 92.1726Z" fill="white"/>
<path d="M86.3772 59.7859L96.8445 61.4376L94.965 58.2313C94.965 58.2313 105.4 50.5557 111.622 52.4341C120.113 54.9927 114.992 65.486 111.071 70.2792C111.071 70.2792 117.909 65.1297 118.233 57.3893C118.557 49.6488 111.103 48.3858 106.21 49.1307C101.252 49.8756 86.3772 59.7859 86.3772 59.7859Z" fill="black"/>
<path d="M86.3772 59.7858L97.0066 59.0409L90.3632 49.9079L86.3772 59.7858Z" fill="white"/>
<path d="M111.039 70.2792C111.039 70.2792 123.71 60.2069 119.043 52.3046C111.557 39.5766 92.7291 52.1103 89.5857 54.8631L92.081 58.5228C92.081 58.5228 109.062 44.9204 115.705 52.8228C120.988 59.1382 112.108 69.3076 111.039 70.2792Z" fill="white"/>
<path d="M72.7343 98.8767C72.7343 98.8767 77.7573 99.1034 81.9378 97.7432L82.7804 102.439L92.8264 90.9744C92.8264 90.9744 84.8868 93.4358 80.123 93.954C75.3917 94.4398 72.7019 94.5045 72.7019 94.5045V98.8767H72.7343Z" fill="black"/>
<path d="M92.859 90.9744L81.6139 86.7965L82.4241 90.683C79.4751 91.2983 69.9151 92.95 65.3458 89.3875C57.5034 83.2664 66.1235 73.6799 67.1929 72.7407C67.1929 72.7407 56.6932 79.8658 60.582 89.3875C64.568 99.1359 79.4103 96.1239 83.3315 95.1199L84.1741 99.2007L92.859 90.9744Z" fill="white" stroke="black" stroke-width="0.279856" stroke-miterlimit="10" stroke-linecap="round" stroke-linejoin="round"/>
<path d="M62.2998 40.2567C62.2998 40.2567 67.6469 43.1391 68.8459 44.1107C70.5959 45.5358 70.1098 48.2239 70.1098 48.2239H63.2396L58.2166 45.6653L62.2998 40.2567Z" fill="#E39278"/>
<path d="M38.8045 20.4361C38.8045 20.4361 35.2073 21.5696 33.3278 25.2617C31.4806 28.9538 35.4342 29.3424 35.4342 29.3424C35.4342 29.3424 30.638 36.4675 34.7212 37.9573C38.8045 39.4471 43.309 34.4919 43.309 34.4919L43.6979 22.185L38.8045 20.4361Z" fill="black"/>
<path d="M36.8924 20.7275C36.8924 20.7275 36.0822 20.7599 36.0498 21.7963C36.0498 23.1889 37.9942 24.031 37.9942 24.031L39.0636 23.2213L36.8924 20.7275Z" fill="#75CFBC"/>
<path d="M24.124 126.567L25.2259 117.434L34.3969 118.341L32.7118 128.252C32.7118 128.252 25.8416 128.09 24.124 126.567Z" fill="#E39278"/>
<path d="M45.0913 126.535L44.7349 119.572H53.2902V128.057C53.2578 128.057 46.8089 128.381 45.0913 126.535Z" fill="#E39278"/>
<path d="M23.1525 50.0376C23.4117 49.3575 26.3283 44.9853 26.3283 44.9853L32.6152 47.5438C32.6152 47.5438 30.8977 49.6813 29.2125 52.0456L32.6152 61.2758L30.282 64.2554C30.282 64.2554 21.6294 54.345 23.1525 50.0376Z" fill="#E39278"/>
<path d="M34.2344 122.487C32.2576 123.167 25.9059 122.616 24.3828 121.709C25.8087 109.921 27.5263 95.9619 28.8549 92.3022L31.4151 76.1412C31.4151 76.1412 31.3502 70.1497 32.0956 67.1701C32.9382 63.7371 35.1742 60.5632 35.1742 60.5632L52.9007 61.0166C52.9007 61.0166 53.7757 62.6683 53.7757 65.2269C53.7757 67.6559 53.5812 122.713 53.5812 122.713C51.8961 123.426 45.9981 123.62 43.6648 122.713C43.6648 122.713 41.7852 96.5773 43.8268 93.6301L43.1463 74.9105L42.5306 75.0725L39.2899 93.4034L34.2344 122.487Z" fill="#75CFBC"/>
<path d="M34.0724 65.1945C34.0724 65.1945 33.4891 67.17 33.1974 69.1133C32.7437 72.0928 33.0678 75.3639 33.0678 75.3639L30.4104 92.5613L29.6975 93.1442C29.6975 93.1442 26.6513 107.459 25.4846 121.126" stroke="black" stroke-width="0.279856" stroke-miterlimit="10" stroke-linecap="round" stroke-linejoin="round"/>
<path d="M42.4983 74.6514L42.6927 72.8054L44.6047 71.7366L45.739 63.9962" stroke="black" stroke-width="0.279856" stroke-miterlimit="10" stroke-linecap="round" stroke-linejoin="round"/>
<path d="M44.7343 74.7487L45.5445 93.5654L44.4103 94.2779H45.1556C45.1556 94.2779 43.3408 104.253 45.1232 122.454" stroke="black" stroke-width="0.279856" stroke-miterlimit="10" stroke-linecap="round" stroke-linejoin="round"/>
<path d="M50.1793 34.6539C50.1793 34.6539 52.6098 35.2044 53.8088 35.4959C55.5912 35.9817 63.4012 40.775 63.4012 40.775C63.4012 40.775 62.1049 45.9892 58.3133 48.5802L53.9708 46.3779C53.9708 46.3779 54.4245 48.0944 54.4245 49.066C54.4245 50.0376 53.4523 51.5274 52.4153 53.341C52.5449 55.2195 52.5774 56.9036 52.9014 61.0167C50.8274 62.5389 38.5777 62.4741 35.175 60.5633C35.0129 59.0411 36.4388 55.6405 36.9573 53.8916C36.4388 51.0416 35.5314 46.9285 35.5314 46.9285L31.5778 52.2399C31.5778 52.2399 26.7168 49.4546 24.3835 47.6086C24.3835 47.6086 29.7631 38.2488 31.0917 37.3744C32.4204 36.4999 37.7675 34.751 37.7675 34.751L50.1793 34.6539Z" fill="#441153"/>
<path d="M45.9338 29.2129L46.6792 33.5527L50.2115 34.6539C50.2115 34.6539 49.9198 38.2812 45.4477 38.5403C40.7163 38.7994 37.7673 34.8158 37.7673 34.8158L40.7487 33.5851L40.8136 26.8487L45.9338 29.2129Z" fill="#E39278"/>
<path d="M46.6145 33.2612C40.8785 35.6902 41.2998 27.3345 41.2998 27.3345L40.7812 26.8487L45.9015 29.2129L46.6145 33.2612Z" fill="#E39278"/>
<path d="M32.4861 61.049H35.7268C35.7268 61.049 37.5739 61.8587 37.8332 61.9559C38.0925 62.0854 39.3563 63.7695 39.4859 63.9962C39.6156 64.1906 39.2915 64.7087 38.7406 64.5468C38.4813 64.4497 38.0925 64.1582 37.736 63.8667C38.2221 64.482 38.8378 65.2593 38.935 65.3889C39.0971 65.6156 38.7082 66.1985 38.2545 66.0042C38.3193 66.2309 37.898 66.6519 37.5091 66.5224C36.9582 66.3605 35.7916 65.1945 35.7916 65.1945L34.9814 65.0002C35.3055 65.2917 35.5647 65.5184 35.6295 65.5832C35.7592 65.7127 36.6017 66.7491 36.7314 67.0406C36.861 67.2997 36.4397 67.7855 35.9212 67.5588C35.4027 67.3321 34.6249 66.5548 34.6249 66.5548L33.3611 66.0042C33.3611 66.0042 30.8334 66.5548 30.0232 63.8667L32.4861 61.049Z" fill="#E39278"/>
<path d="M38.1898 65.8747C38.1898 65.8747 36.7963 64.1582 36.6343 64.0286C36.4398 63.8991 34.3982 63.3485 34.3982 63.3485" stroke="black" stroke-width="0.279856" stroke-miterlimit="10" stroke-linecap="round" stroke-linejoin="round"/>
<path d="M37.6711 63.7695C37.6711 63.7695 37.1202 63.057 37.0553 63.0246C36.9905 62.9922 34.9165 62.3768 34.9165 62.3768" stroke="black" stroke-width="0.279856" stroke-miterlimit="10" stroke-linecap="round" stroke-linejoin="round"/>
<path d="M34.7868 64.9355L33.9119 64.4173" stroke="black" stroke-width="0.279856" stroke-miterlimit="10" stroke-linecap="round" stroke-linejoin="round"/>
<path d="M45.0913 126.535C45.0913 126.535 43.4386 128.834 44.0219 134.826H66.2205C66.2205 134.826 67.0306 131.782 64.8918 130.227C62.753 128.673 56.8549 127.086 56.8549 127.086L53.2902 124.527C51.3782 124.462 49.8875 125.304 49.0773 126.535H45.0913Z" fill="#441153"/>
<path d="M43.0495 134.826C43.0495 134.826 43.0171 132.85 43.892 131.879L66.3499 133.336C66.3499 133.336 66.9656 133.952 66.7712 134.794L43.0495 134.826Z" fill="black"/>
<path d="M24.1242 126.568C24.1242 126.568 21.7261 128.867 22.3095 134.859H39.9711C39.9711 134.859 40.4896 130.454 38.2211 129.094C36.3416 127.96 35.3369 127.312 35.3369 127.312L33.3601 125.337C30.7352 123.717 27.0732 124.592 25.4205 126.6H24.1242V126.568Z" fill="#441153"/>
<path d="M21.5967 134.859C21.5967 134.859 21.5643 132.818 22.2448 131.911L40.0361 133.369C40.0361 133.369 40.6194 133.984 40.4574 134.826L21.5967 134.859Z" fill="black"/>
<path d="M49.8555 20.2417C51.2814 23.3833 50.3416 31.3828 47.5222 31.5771C42.4667 31.9334 38.0918 27.1077 39.0964 21.6668C40.1335 16.161 47.9759 16.0315 49.8555 20.2417Z" fill="#E39278"/>
<path d="M50.471 22.6708C50.471 22.6708 53.9061 20.8895 53.7764 18.3633C53.6468 15.8372 49.9849 16.5821 49.9849 16.5821C49.9849 16.5821 51.7996 13.0843 48.559 11.9184C46.2905 11.1087 42.0128 14.9303 42.0128 14.9303C42.0128 14.9303 39.5823 13.6349 37.8972 14.5741C33.1982 17.165 38.124 23.4804 38.124 23.4804L40.3277 24.4197C40.3277 24.4197 43.5359 25.1646 43.5035 21.4401C43.5035 21.4401 48.8182 23.0918 49.8552 21.1486C49.8876 21.1486 50.3737 22.2174 50.471 22.6708Z" fill="black"/>
<path d="M40.7818 24.1605C40.4578 23.4156 39.3235 21.8287 38.1245 22.3469C36.569 23.0594 37.0551 25.9418 38.7726 26.8486C39.9717 27.464 41.6244 26.1685 40.7818 24.1605Z" fill="#E39278"/>
<path d="M81.0311 71.2185H57.8604C56.078 71.2185 54.6521 69.7935 54.6521 68.0122V51.074C54.6521 49.2927 56.078 47.8677 57.8604 47.8677H81.0311C82.8135 47.8677 84.2394 49.2927 84.2394 51.074V68.0122C84.2394 69.7935 82.8135 71.2185 81.0311 71.2185Z" fill="#5FA3FA"/>
<path d="M72.8972 65.8423H76.4295L71.1148 53.8592H67.7769L62.4946 65.8423H65.9621L66.9019 63.5105H71.9898L72.8972 65.8423ZM67.9065 61.0167L69.4297 57.1951L70.9528 61.0167H67.9065Z" fill="white"/>
<path d="M66.4154 43.7221C66.4154 43.7221 60.9063 45.2119 59.3832 45.5034C57.86 45.7949 55.2351 48.6125 55.2351 48.6125C55.2351 48.6125 54.3601 50.2967 54.3601 50.5234C54.3601 50.7177 53.9388 52.7257 54.0361 52.92C54.1333 53.1143 54.749 53.2438 54.9758 52.8228C55.2027 52.4018 55.6564 50.7501 55.6564 50.7501L56.499 49.6165C56.3045 50.2319 56.0777 50.7177 56.0777 50.8148C56.0777 51.0092 55.8832 53.3086 55.8832 53.6001C55.8832 53.9887 56.6934 54.0211 56.9202 53.6649C56.9527 53.6325 56.9851 53.5353 56.9851 53.4058C57.1795 53.5029 57.6008 53.6001 57.86 53.2762C57.9573 53.1467 58.0869 52.4342 58.1841 51.8836C58.1841 52.2722 58.1193 52.7257 58.1841 52.8876C58.2813 53.2115 59.0591 53.1143 59.1887 52.6609C59.2535 52.4018 59.448 51.3654 59.5128 50.7177C59.7072 50.6529 61.9433 49.8432 62.3646 47.8676H68.7811L66.4154 43.7221Z" fill="#E39278"/>
<path d="M56.8879 53.3411C56.8879 53.3411 56.7583 53.3087 56.7583 53.1144C56.7583 52.9525 57.0176 50.8473 57.0176 50.8473L57.6657 49.066" stroke="black" stroke-width="0.279856" stroke-miterlimit="10" stroke-linecap="round" stroke-linejoin="round"/>
<path d="M58.7676 49.2927L58.2491 50.6206L58.1843 51.6246" stroke="black" stroke-width="0.279856" stroke-miterlimit="10" stroke-linecap="round" stroke-linejoin="round"/>
<path d="M62.073 44.8557L66.4155 43.7222C66.4155 43.7222 67.7118 43.5279 68.9756 45.4063" stroke="black" stroke-width="0.279856" stroke-miterlimit="10" stroke-linecap="round" stroke-linejoin="round"/>
<path d="M24.74 50.6853C24.74 50.6853 27.2353 49.6165 28.9853 51.8836" stroke="black" stroke-width="0.279856" stroke-miterlimit="10" stroke-linecap="round" stroke-linejoin="round"/>
<path d="M53.8738 45.9244C53.8738 45.9244 52.9989 43.042 52.772 42.3619C52.5776 41.6493 52.5452 40.9044 52.5452 40.9044" stroke="black" stroke-width="0.279856" stroke-miterlimit="10" stroke-linecap="round" stroke-linejoin="round"/>
<path d="M35.6284 46.7665L37.1191 44.5642" stroke="black" stroke-width="0.279856" stroke-miterlimit="10" stroke-linecap="round" stroke-linejoin="round"/>
<path d="M54.0033 127.215C55.4616 127.086 57.3088 126.989 59.0912 127.766C59.2532 125.887 54.9107 125.887 54.0033 127.215ZM54.0033 127.215C55.4941 127.086 59.2532 126.049 58.8319 124.657C58.6051 123.912 57.0496 123.361 55.332 124.398C53.8089 125.304 52.9987 127.183 52.9987 127.183C52.9987 127.183 50.0497 127.604 50.2118 131.166" stroke="black" stroke-width="0.279856" stroke-miterlimit="10" stroke-linecap="round" stroke-linejoin="round"/>
<path d="M33.1989 127.766C35.0137 127.28 36.1155 127.798 36.7637 128.154C35.8239 125.175 33.2962 127.669 33.1989 127.766ZM33.1989 127.766C29.0185 124.851 26.4908 128.932 27.787 128.835C29.1157 128.705 32.324 127.96 32.324 127.96C32.324 127.96 29.5046 129.774 29.537 131.523" stroke="black" stroke-width="0.279856" stroke-miterlimit="10" stroke-linecap="round" stroke-linejoin="round"/>
<path d="M81.6138 17.8127H62.267C60.3226 17.8127 58.7671 16.2582 58.7671 14.315V10.4286C58.7671 8.48535 60.3226 6.93079 62.267 6.93079H81.6138C83.5582 6.93079 85.1137 8.48535 85.1137 10.4286V14.315C85.1137 16.2582 83.5582 17.8127 81.6138 17.8127Z" fill="white" stroke="black" stroke-width="0.279856" stroke-miterlimit="10" stroke-linecap="round" stroke-linejoin="round"/>
<path d="M64.8921 16.4848C64.8921 16.4848 65.1514 23.2861 58.4756 24.4196C58.4756 24.4196 67.4198 25.3264 67.4198 15.8371" fill="white"/>
<path d="M64.8921 16.4848C64.8921 16.4848 65.1514 23.2861 58.4756 24.4196C58.4756 24.4196 67.4198 25.3264 67.4198 15.8371" stroke="black" stroke-width="0.279856" stroke-miterlimit="10" stroke-linecap="round" stroke-linejoin="round"/>
<path d="M67.7436 10.0722V14.2501H66.7714V12.5336H64.8594V14.2501H63.8872V10.0722H64.8594V11.724H66.7714V10.0722H67.7436Z" fill="#DD464D"/>
<path d="M71.8273 12.9223H69.3968C69.4292 13.1166 69.5589 13.2786 69.7209 13.4081C69.8829 13.5377 70.0774 13.5701 70.3366 13.5701C70.4987 13.5701 70.6607 13.5377 70.7903 13.5053C70.9199 13.4405 71.0496 13.3757 71.1468 13.2786L71.6329 13.8291C71.3412 14.1854 70.8875 14.3473 70.3042 14.3473C69.9477 14.3473 69.6237 14.2826 69.332 14.1206C69.0404 13.9911 68.8459 13.7968 68.6839 13.5377C68.5218 13.2786 68.457 12.9871 68.457 12.6956C68.457 12.3717 68.5218 12.0803 68.6839 11.8536C68.8459 11.5945 69.0404 11.4001 69.2996 11.2706C69.5589 11.141 69.8505 11.0439 70.1746 11.0439C70.4987 11.0439 70.7903 11.1087 71.0172 11.2382C71.2764 11.3678 71.4709 11.5621 71.6329 11.8212C71.7625 12.0803 71.8597 12.3717 71.8597 12.6956C71.8273 12.6632 71.8273 12.7604 71.8273 12.9223ZM69.6237 11.8859C69.494 12.0155 69.3968 12.1774 69.3644 12.3717H70.9523C70.9199 12.1774 70.8227 12.0155 70.6931 11.8859C70.5635 11.7564 70.369 11.6916 70.1746 11.6916C69.9477 11.6916 69.7857 11.7564 69.6237 11.8859Z" fill="#DD464D"/>
<path d="M72.4426 9.8132H73.3824V14.2502H72.4426V9.8132Z" fill="#DD464D"/>
<path d="M74.2573 9.8132H75.1971V14.2502H74.2573V9.8132Z" fill="#DD464D"/>
<path d="M76.688 14.0882C76.4287 13.9587 76.2019 13.7643 76.0398 13.5053C75.8778 13.2462 75.813 12.9547 75.813 12.6632C75.813 12.3393 75.8778 12.0479 76.0398 11.8211C76.2019 11.562 76.3963 11.3677 76.688 11.2382C76.9472 11.1086 77.2713 11.0115 77.5954 11.0115C77.9194 11.0115 78.2435 11.0762 78.5027 11.2382C78.762 11.3677 78.9888 11.562 79.1185 11.8211C79.2805 12.0802 79.3453 12.3717 79.3453 12.6632C79.3453 12.9871 79.2805 13.2785 79.1185 13.5053C78.9564 13.7643 78.762 13.9587 78.5027 14.0882C78.2435 14.2178 77.9194 14.3149 77.5954 14.3149C77.2713 14.3149 76.9472 14.2502 76.688 14.0882ZM78.1787 13.3109C78.3407 13.149 78.4055 12.9223 78.4055 12.6632C78.4055 12.4041 78.3407 12.1774 78.1787 12.0155C78.0166 11.8535 77.8222 11.7888 77.5954 11.7888C77.3685 11.7888 77.1741 11.8535 77.012 12.0155C76.85 12.1774 76.7852 12.4041 76.7852 12.6632C76.7852 12.9223 76.85 13.149 77.012 13.3109C77.1741 13.4729 77.3685 13.5376 77.5954 13.5376C77.8222 13.5376 78.0166 13.4729 78.1787 13.3109Z" fill="#DD464D"/>
<path d="M4.06511 29.7634H23.4119C25.3563 29.7634 26.9118 28.2088 26.9118 26.2656V22.3468C26.9118 20.4036 25.3563 18.8491 23.4119 18.8491H4.06511C2.12071 18.8491 0.565186 20.4036 0.565186 22.3468V26.2332C0.565186 28.1764 2.15311 29.7634 4.06511 29.7634Z" fill="white" stroke="black" stroke-width="0.279856" stroke-miterlimit="10" stroke-linecap="round" stroke-linejoin="round"/>
<path d="M20.8197 28.4355C20.8197 28.4355 20.5605 35.2368 27.2362 36.3703C27.2362 36.3703 18.292 37.2771 18.292 27.7878" fill="white"/>
<path d="M20.8197 28.4355C20.8197 28.4355 20.5605 35.2368 27.2362 36.3703C27.2362 36.3703 18.292 37.2771 18.292 27.7878" stroke="black" stroke-width="0.279856" stroke-miterlimit="10" stroke-linecap="round" stroke-linejoin="round"/>
<path d="M10.8715 22.1849V26.3628H9.89933V24.6463H7.98734V26.3628H7.01514V22.1849H7.98734V23.8367H9.89933V22.1849H10.8715Z" fill="black"/>
<path d="M14.2743 23.4804C14.5335 23.7071 14.6632 24.0634 14.6632 24.5492V26.3952H13.7882V26.0066C13.6262 26.2981 13.2697 26.46 12.816 26.46C12.5567 26.46 12.3623 26.4276 12.1679 26.3305C11.9734 26.2333 11.8438 26.1362 11.7466 25.9742C11.6494 25.8123 11.6169 25.6503 11.6169 25.456C11.6169 25.1645 11.7142 24.9055 11.941 24.7435C12.1679 24.5816 12.5243 24.4844 12.978 24.4844H13.7234C13.7234 24.2901 13.6586 24.1282 13.5289 23.9986C13.3993 23.9015 13.2049 23.8367 12.978 23.8367C12.816 23.8367 12.6216 23.8691 12.4595 23.9015C12.2975 23.9662 12.1679 24.031 12.0382 24.1282L11.7142 23.4804C11.8762 23.3509 12.103 23.2537 12.3623 23.189C12.6216 23.1242 12.8484 23.0918 13.1077 23.0918C13.6262 23.1242 13.9826 23.2213 14.2743 23.4804ZM13.4641 25.6827C13.5938 25.618 13.691 25.4884 13.7234 25.3589V25.035H13.0752C12.6864 25.035 12.4919 25.1645 12.4919 25.4236C12.4919 25.5532 12.5243 25.6504 12.6216 25.7151C12.7188 25.7799 12.8484 25.8123 13.0104 25.8123C13.2049 25.8123 13.3345 25.7475 13.4641 25.6827Z" fill="black"/>
<path d="M15.5063 21.9258H16.4461V26.3628H15.5063V21.9258Z" fill="black"/>
<path d="M17.9363 26.2009C17.677 26.0713 17.4502 25.877 17.2881 25.6179C17.1261 25.3588 17.0613 25.0673 17.0613 24.7758C17.0613 24.452 17.1261 24.1605 17.2881 23.9338C17.4502 23.6747 17.6446 23.4804 17.9363 23.3508C18.1955 23.2213 18.5196 23.1241 18.8436 23.1241C19.1677 23.1241 19.4918 23.1889 19.751 23.3508C20.0103 23.4804 20.2371 23.6747 20.3668 23.9338C20.5288 24.1929 20.5936 24.4844 20.5936 24.7758C20.5936 25.0997 20.5288 25.3912 20.3668 25.6179C20.2047 25.877 20.0103 26.0713 19.751 26.2009C19.4918 26.3304 19.1677 26.4276 18.8436 26.4276C18.5196 26.4276 18.1955 26.3628 17.9363 26.2009ZM19.427 25.4236C19.589 25.2616 19.6538 25.0349 19.6538 24.7758C19.6538 24.5167 19.589 24.29 19.427 24.1281C19.2649 23.9662 19.0705 23.9014 18.8436 23.9014C18.6168 23.9014 18.4224 23.9662 18.2603 24.1281C18.0983 24.29 18.0335 24.5167 18.0335 24.7758C18.0335 25.0349 18.0983 25.2616 18.2603 25.4236C18.4224 25.5855 18.6168 25.6503 18.8436 25.6503C19.0705 25.6503 19.2973 25.5855 19.427 25.4236Z" fill="black"/>
<path d="M189.431 63.9639C189.431 64.3526 189.107 64.6764 188.718 64.6764C188.329 64.6764 188.005 64.3526 188.005 63.9639C188.005 63.5753 188.329 63.2514 188.718 63.2514C189.139 63.2514 189.431 63.5753 189.431 63.9639Z" fill="black"/>
<path d="M192.672 63.9639C192.672 64.3525 192.348 64.6764 191.959 64.6764C191.57 64.6764 191.246 64.3525 191.246 63.9639C191.246 63.5752 191.57 63.2514 191.959 63.2514C192.348 63.2514 192.672 63.5752 192.672 63.9639Z" fill="black"/>
<path d="M195.912 63.9639C195.912 64.3525 195.588 64.6764 195.2 64.6764C194.811 64.6764 194.487 64.3525 194.487 63.9639C194.487 63.5752 194.811 63.2514 195.2 63.2514C195.588 63.2514 195.912 63.5752 195.912 63.9639Z" fill="black"/>
<path d="M199.12 63.9639C199.12 64.3525 198.796 64.6764 198.408 64.6764C198.019 64.6764 197.695 64.3525 197.695 63.9639C197.695 63.5752 198.019 63.2514 198.408 63.2514C198.796 63.2514 199.12 63.5752 199.12 63.9639Z" fill="black"/>
<path d="M165.936 16.4525C165.936 16.8411 165.612 17.165 165.223 17.165C164.834 17.165 164.51 16.8411 164.51 16.4525C164.51 16.0639 164.834 15.74 165.223 15.74C165.612 15.74 165.936 16.0639 165.936 16.4525Z" fill="black"/>
<path d="M169.176 16.4525C169.176 16.8411 168.852 17.165 168.463 17.165C168.074 17.165 167.75 16.8411 167.75 16.4525C167.75 16.0638 168.074 15.74 168.463 15.74C168.852 15.74 169.176 16.0638 169.176 16.4525Z" fill="black"/>
<path d="M172.384 16.4525C172.384 16.8411 172.06 17.165 171.671 17.165C171.283 17.165 170.958 16.8411 170.958 16.4525C170.958 16.0638 171.283 15.74 171.671 15.74C172.06 15.74 172.384 16.0638 172.384 16.4525Z" fill="black"/>
<path d="M175.625 16.4525C175.625 16.8411 175.301 17.165 174.912 17.165C174.523 17.165 174.199 16.8411 174.199 16.4525C174.199 16.0638 174.523 15.74 174.912 15.74C175.301 15.74 175.625 16.0638 175.625 16.4525Z" fill="black"/>
<path d="M84.0122 26.6219C84.0122 27.3345 83.4289 27.9174 82.7159 27.9174C82.003 27.9174 81.4197 27.3345 81.4197 26.6219C81.4197 25.9094 82.003 25.3265 82.7159 25.3265C83.4289 25.3589 84.0122 25.9094 84.0122 26.6219Z" fill="black"/>
<path d="M89.8774 26.6219C89.8774 27.3345 89.2941 27.9174 88.5812 27.9174C87.8682 27.9174 87.2849 27.3345 87.2849 26.6219C87.2849 25.9094 87.8682 25.3265 88.5812 25.3265C89.2941 25.3265 89.8774 25.9094 89.8774 26.6219Z" fill="black"/>
<path d="M95.7437 26.6219C95.7437 27.3345 95.1603 27.9174 94.4474 27.9174C93.7344 27.9174 93.1511 27.3345 93.1511 26.6219C93.1511 25.9094 93.7344 25.3265 94.4474 25.3265C95.1927 25.3589 95.7437 25.9094 95.7437 26.6219Z" fill="black"/>
<path d="M14.8886 70.1821C15.4435 70.1821 15.8932 69.7326 15.8932 69.1781C15.8932 68.6236 15.4435 68.1741 14.8886 68.1741C14.3338 68.1741 13.884 68.6236 13.884 69.1781C13.884 69.7326 14.3338 70.1821 14.8886 70.1821Z" fill="black"/>
<path d="M19.4904 70.1821C20.0453 70.1821 20.4951 69.7326 20.4951 69.1781C20.4951 68.6236 20.0453 68.1741 19.4904 68.1741C18.9356 68.1741 18.4858 68.6236 18.4858 69.1781C18.4858 69.7326 18.9356 70.1821 19.4904 70.1821Z" fill="black"/>
<path d="M24.0923 70.1821C24.6471 70.1821 25.0969 69.7326 25.0969 69.1781C25.0969 68.6236 24.6471 68.1741 24.0923 68.1741C23.5374 68.1741 23.0876 68.6236 23.0876 69.1781C23.0876 69.7326 23.5374 70.1821 24.0923 70.1821Z" fill="black"/>
<path d="M137.224 109.338C137.224 109.726 136.9 110.083 136.478 110.083C136.089 110.083 135.733 109.759 135.733 109.338C135.733 108.949 136.057 108.593 136.478 108.593C136.867 108.593 137.224 108.949 137.224 109.338Z" fill="black"/>
<path d="M140.562 109.338C140.562 109.726 140.238 110.083 139.816 110.083C139.428 110.083 139.071 109.759 139.071 109.338C139.071 108.949 139.395 108.593 139.816 108.593C140.238 108.593 140.562 108.949 140.562 109.338Z" fill="black"/>
<path d="M143.187 110.083C143.598 110.083 143.932 109.749 143.932 109.338C143.932 108.926 143.598 108.593 143.187 108.593C142.775 108.593 142.441 108.926 142.441 109.338C142.441 109.749 142.775 110.083 143.187 110.083Z" fill="black"/>
<path d="M9.80078 87.6386C9.80078 86.667 10.5785 85.8897 11.5507 85.8897C12.5229 85.8897 13.3007 86.667 13.3007 87.6386C13.3007 88.6102 12.5229 89.3875 11.5507 89.3875C10.5785 89.3875 9.80078 88.6102 9.80078 87.6386Z" stroke="#5FA3FA" stroke-width="0.279856" stroke-miterlimit="10"/>
<path d="M91.2708 3.82164C91.2708 2.85004 92.0485 2.07275 93.0207 2.07275C93.9929 2.07275 94.7707 2.85004 94.7707 3.82164C94.7707 4.79324 93.9929 5.57052 93.0207 5.57052C92.0809 5.57052 91.2708 4.79324 91.2708 3.82164Z" stroke="#5FA3FA" stroke-width="0.279856" stroke-miterlimit="10"/>
<path d="M129.867 2.07273C129.867 0.97158 130.742 0.0971375 131.844 0.0971375C132.946 0.0971375 133.821 0.97158 133.821 2.07273C133.821 3.17388 132.946 4.04832 131.844 4.04832C130.775 4.04832 129.867 3.17388 129.867 2.07273Z" stroke="#5FA3FA" stroke-width="0.279856" stroke-miterlimit="10"/>
<path d="M20.4946 11.3678C20.4946 10.5581 21.1752 9.87796 21.9853 9.87796C22.7955 9.87796 23.476 10.5581 23.476 11.3678C23.476 12.1774 22.7955 12.8575 21.9853 12.8575C21.1752 12.8575 20.4946 12.1774 20.4946 11.3678Z" stroke="#5FA3FA" stroke-width="0.279856" stroke-miterlimit="10"/>
<path d="M192.995 77.1452C192.995 76.8214 193.254 76.5623 193.578 76.5623C193.903 76.5623 194.162 76.8214 194.162 77.1452C194.162 77.4691 193.903 77.7282 193.578 77.7282C193.254 77.7282 192.995 77.4691 192.995 77.1452Z" stroke="#5FA3FA" stroke-width="0.279856" stroke-miterlimit="10"/>
<path d="M183.176 108.593C183.176 108.269 183.435 108.01 183.759 108.01C184.083 108.01 184.343 108.269 184.343 108.593C184.343 108.917 184.083 109.176 183.759 109.176C183.468 109.208 183.176 108.949 183.176 108.593Z" stroke="#5FA3FA" stroke-width="0.279856" stroke-miterlimit="10"/>
<path d="M6.07324 96.1563C6.07324 95.7029 6.46212 95.3142 6.91582 95.3142C7.36951 95.3142 7.75839 95.7029 7.75839 96.1563C7.75839 96.6097 7.36951 96.9984 6.91582 96.9984C6.46212 97.0307 6.07324 96.6421 6.07324 96.1563Z" stroke="#5FA3FA" stroke-width="0.279856" stroke-miterlimit="10"/>
<path d="M184.472 79.6714C185.546 79.6714 186.417 78.8014 186.417 77.7282C186.417 76.655 185.546 75.785 184.472 75.785C183.398 75.785 182.528 76.655 182.528 77.7282C182.528 78.8014 183.398 79.6714 184.472 79.6714Z" stroke="#5FA3FA" stroke-width="0.279856" stroke-miterlimit="10"/>
<path d="M3.02734 56.2558C3.02734 55.187 3.90232 54.3126 4.97174 54.3126C6.04116 54.3126 6.91614 55.187 6.91614 56.2558C6.91614 57.3246 6.04116 58.199 4.97174 58.199C3.90232 58.199 3.02734 57.3246 3.02734 56.2558Z" fill="#5FA3FA"/>
<path d="M84.4329 128.252C84.4329 126.665 85.7291 125.402 87.2846 125.402C88.8726 125.402 90.1364 126.697 90.1364 128.252C90.1364 129.839 88.8402 131.102 87.2846 131.102C85.7291 131.102 84.4329 129.839 84.4329 128.252Z" fill="#5FA3FA"/>
<path d="M204.338 134.826H10.9998" stroke="black" stroke-width="0.559712" stroke-miterlimit="10" stroke-linecap="round" stroke-linejoin="round"/>
<path d="M68.7807 137.838H19.4253" stroke="black" stroke-width="0.559712" stroke-miterlimit="10" stroke-linecap="round" stroke-linejoin="round"/>
<path d="M176.177 137.838H99.4702" stroke="black" stroke-width="0.559712" stroke-miterlimit="10" stroke-linecap="round" stroke-linejoin="round"/>
<path d="M104.234 137.838C104.234 137.838 106.794 119.054 117.65 117.467C126.076 116.236 123.613 131.879 120.113 131.879C116.937 131.846 120.21 121.288 129.803 119.799C140.043 118.244 136.608 133.66 133.951 132.948C132.168 132.429 135.766 126.729 141.826 127.539C146.038 128.09 148.21 131.62 152.066 131.846" stroke="black" stroke-width="0.279856" stroke-miterlimit="10" stroke-linecap="round" stroke-linejoin="round"/>
</g>
<defs>
<clipPath id="clip0_529_10381">
<rect width="204" height="138" fill="white" transform="translate(0.5)"/>
</clipPath>
</defs>
</svg>
