<svg width="164" height="164" viewBox="0 0 164 164" fill="none" xmlns="http://www.w3.org/2000/svg">
<path d="M76.9009 13.4961H154.579C159.295 13.4961 163.118 17.319 163.118 22.0349V88.7339H76.9009V13.4961Z" fill="#D7D2FF"/>
<path d="M76.9009 88.734H163.118V155.433C163.118 160.149 159.295 163.972 154.579 163.972H76.9009V88.734Z" fill="#EAE9E9"/>
<path d="M0.455566 8.99371C0.455566 4.27789 4.27849 0.454956 8.99431 0.454956H76.3592L99.8927 150.931H8.99432C4.2785 150.931 0.455566 147.108 0.455566 142.392V8.99371Z" fill="#5AA587"/>
<path d="M76.9009 150.931H99.8921L85.81 159.709L76.9009 163.972V150.931Z" fill="#3C8166"/>
<path d="M123.793 56.4233H113.055L111.334 61.5056H103.997L114.408 32.7334H122.523L132.933 61.5056H125.515L123.793 56.4233ZM121.99 51.0132L118.424 40.4798L114.899 51.0132H121.99Z" fill="#4D4949"/>
<path d="M27.6642 22.4309C27.7224 26.9116 24.0078 30.6962 19.0904 31.1664V33.8251C19.0904 34.2806 18.6829 34.6498 18.1803 34.6498C17.6777 34.6498 17.2702 34.2806 17.2702 33.8251V31.2099C12.3758 30.7416 8.66923 26.9886 8.69642 22.5286C8.67717 22.2339 8.83284 21.9523 9.10479 21.7899C9.37674 21.6275 9.72366 21.6089 10.0149 21.7411C10.3061 21.8733 10.4973 22.1362 10.5166 22.4309C10.4813 24.3035 11.2694 26.112 12.7071 27.4575C14.1447 28.8031 16.1138 29.5753 18.1803 29.6038C20.2468 29.5753 22.2159 28.8031 23.6536 27.4575C25.0912 26.112 25.8793 24.3035 25.8441 22.4309C25.8441 21.9754 26.2515 21.6062 26.7541 21.6062C27.2567 21.6062 27.6642 21.9754 27.6642 22.4309Z" fill="white"/>
<path fill-rule="evenodd" clip-rule="evenodd" d="M15.9097 11.4756C18.1455 10.6452 20.713 11.1141 22.4193 12.6644C23.5298 13.6733 24.1578 15.0376 24.1676 16.4625V21.8883C24.1676 24.8849 21.487 27.3141 18.1803 27.3141C14.8736 27.3141 12.193 24.8849 12.193 21.8883V16.4625C12.208 14.2729 13.6739 12.306 15.9097 11.4756ZM19.4719 21.0728V16.2677C19.4605 15.7978 18.9285 15.4189 18.2688 15.4108C17.6108 15.4111 17.0774 15.791 17.077 16.2597L17.077 21.0648C17.0884 21.5347 17.6204 21.9137 18.2801 21.9218C18.9381 21.9215 19.4715 21.5416 19.4719 21.0728Z" fill="white"/>
<path d="M122.53 118.833C122.721 118.86 123.008 118.874 123.391 118.874C124.702 118.874 125.659 118.505 126.26 117.767C126.861 117.002 127.161 115.813 127.161 114.201V110.021H116.177V125.718C116.177 127.795 116.669 129.407 117.653 130.555C118.636 131.702 120.043 132.276 121.874 132.276C123.568 132.276 124.893 131.784 125.85 130.801C126.806 129.79 127.284 128.396 127.284 126.62H131.506C131.506 129.544 130.645 131.839 128.924 133.506C127.23 135.145 124.907 135.965 121.956 135.965C118.65 135.965 116.15 135.036 114.456 133.178C112.762 131.32 111.915 128.792 111.915 125.595L111.874 110.021H106.955V106.414H135.645V110.021H131.342V114.324C131.342 117.166 130.795 119.297 129.703 120.718C128.61 122.112 126.82 122.808 124.333 122.808C123.787 122.808 123.186 122.767 122.53 122.685V118.833Z" fill="#757373"/>
<path d="M53.1507 68.2416C51.6527 59.0177 48.1194 52.5414 44.0076 52.5414C39.8958 52.5414 36.3625 59.0177 34.8645 68.2416H53.1507ZM34.0897 78.1576C34.0897 80.4507 34.2136 82.6508 34.4306 84.7682H53.5743C53.7913 82.6508 53.9153 80.4507 53.9153 78.1576C53.9153 75.8645 53.7913 73.6644 53.5743 71.547H34.4306C34.2136 73.6644 34.0897 75.8645 34.0897 78.1576ZM67.6351 68.2416C64.6804 61.2282 58.6986 55.8054 51.3118 53.6156C53.8326 57.1069 55.5682 62.3644 56.4774 68.2416H67.6351ZM36.6931 53.6156C29.3166 55.8054 23.3245 61.2282 20.3802 68.2416H31.5379C32.4367 62.3644 34.1723 57.1069 36.6931 53.6156ZM68.7405 71.547H56.8906C57.1076 73.7161 57.2316 75.9368 57.2316 78.1576C57.2316 80.3784 57.1076 82.5991 56.8906 84.7682H68.7302C69.2984 82.6508 69.6187 80.4507 69.6187 78.1576C69.6187 75.8645 69.2984 73.6644 68.7405 71.547ZM30.7837 78.1576C30.7837 75.9368 30.9077 73.7161 31.1246 71.547H19.2747C18.7168 73.6644 18.3862 75.8645 18.3862 78.1576C18.3862 80.4507 18.7168 82.6508 19.2747 84.7682H31.1143C30.9077 82.5991 30.7837 80.3784 30.7837 78.1576ZM34.8645 88.0736C36.3625 97.2975 39.8958 103.774 44.0076 103.774C48.1194 103.774 51.6527 97.2975 53.1507 88.0736H34.8645ZM51.3221 102.7C58.6986 100.51 64.6907 95.087 67.6454 88.0736H56.4877C55.5786 93.9508 53.8429 99.2084 51.3221 102.7ZM20.3802 88.0736C23.3349 95.087 29.3166 100.51 36.7035 102.7C34.1826 99.2084 32.447 93.9508 31.5379 88.0736H20.3802Z" fill="white"/>
<g clip-path="url(#clip0_529_11635)">
<path d="M87.0698 140.277C87.0698 140.631 86.9292 140.97 86.679 141.22C86.4288 141.47 86.0895 141.611 85.7356 141.611H69.7255C69.3716 141.611 69.0323 141.47 68.7821 141.22C68.5319 140.97 68.3913 140.631 68.3913 140.277V132.272C68.3913 131.918 68.5319 131.579 68.7821 131.328C69.0323 131.078 69.3716 130.938 69.7255 130.938H71.2891C72.3501 130.937 73.3675 130.515 74.1176 129.765L75.225 128.66C75.4745 128.411 75.8127 128.27 76.1656 128.269H79.2929C79.6467 128.269 79.986 128.41 80.2361 128.66L81.3408 129.765C81.7126 130.137 82.154 130.432 82.6397 130.633C83.1255 130.834 83.6462 130.938 84.172 130.938H85.7356C86.0895 130.938 86.4288 131.078 86.679 131.328C86.9292 131.579 87.0698 131.918 87.0698 132.272V140.277ZM69.7255 129.603C69.0178 129.603 68.3391 129.885 67.8387 130.385C67.3383 130.885 67.0571 131.564 67.0571 132.272V140.277C67.0571 140.985 67.3383 141.663 67.8387 142.164C68.3391 142.664 69.0178 142.945 69.7255 142.945H85.7356C86.4433 142.945 87.122 142.664 87.6224 142.164C88.1229 141.663 88.404 140.985 88.404 140.277V132.272C88.404 131.564 88.1229 130.885 87.6224 130.385C87.122 129.885 86.4433 129.603 85.7356 129.603H84.172C83.4643 129.603 82.7857 129.322 82.2854 128.822L81.1807 127.717C80.6804 127.216 80.0018 126.935 79.2942 126.935H76.1669C75.4593 126.935 74.7807 127.216 74.2804 127.717L73.1757 128.822C72.6754 129.322 71.9968 129.603 71.2891 129.603H69.7255Z" fill="white"/>
<path d="M77.7307 138.943C76.846 138.943 75.9977 138.591 75.3721 137.966C74.7466 137.34 74.3952 136.492 74.3952 135.607C74.3952 134.723 74.7466 133.874 75.3721 133.249C75.9977 132.623 76.846 132.272 77.7307 132.272C78.6153 132.272 79.4637 132.623 80.0892 133.249C80.7147 133.874 81.0661 134.723 81.0661 135.607C81.0661 136.492 80.7147 137.34 80.0892 137.966C79.4637 138.591 78.6153 138.943 77.7307 138.943ZM77.7307 140.277C78.9691 140.277 80.1569 139.785 81.0326 138.909C81.9083 138.033 82.4003 136.846 82.4003 135.607C82.4003 134.369 81.9083 133.181 81.0326 132.305C80.1569 131.43 78.9691 130.938 77.7307 130.938C76.4922 130.938 75.3045 131.43 74.4287 132.305C73.553 133.181 73.061 134.369 73.061 135.607C73.061 136.846 73.553 138.033 74.4287 138.909C75.3045 139.785 76.4922 140.277 77.7307 140.277ZM71.0598 132.939C71.0598 133.116 70.9895 133.285 70.8644 133.411C70.7393 133.536 70.5696 133.606 70.3927 133.606C70.2158 133.606 70.0461 133.536 69.921 133.411C69.7959 133.285 69.7256 133.116 69.7256 132.939C69.7256 132.762 69.7959 132.592 69.921 132.467C70.0461 132.342 70.2158 132.272 70.3927 132.272C70.5696 132.272 70.7393 132.342 70.8644 132.467C70.9895 132.592 71.0598 132.762 71.0598 132.939Z" fill="white"/>
</g>
<defs>
<clipPath id="clip0_529_11635">
<rect width="21.3469" height="21.3469" fill="white" transform="translate(67.0571 124.267)"/>
</clipPath>
</defs>
</svg>
