<svg width="194" height="194" viewBox="0 0 194 194" fill="none" xmlns="http://www.w3.org/2000/svg">
<rect x="0.696289" y="0.696411" width="192.607" height="192.607" rx="22.5978" fill="white"/>
<path d="M92.5068 36.6395H160.951C165.107 36.6395 168.475 40.0079 168.475 44.1632V102.934H92.5068V36.6395Z" fill="#D7D2FF"/>
<path d="M92.5068 102.934H168.475V161.704C168.475 165.859 165.107 169.228 160.951 169.228H92.5068V102.934Z" fill="#EAE9E9"/>
<path d="M25.1487 32.6722C25.1487 28.517 28.5172 25.1485 32.6724 25.1485H92.0295L112.765 157.737H32.6724C28.5172 157.737 25.1487 154.368 25.1487 150.213V32.6722Z" fill="#5AA587"/>
<path d="M92.5068 157.737H112.765L100.357 165.471L92.5068 169.228V157.737Z" fill="#3C8166"/>
<path d="M133.825 74.8131H124.363L122.846 79.2912H116.382L125.555 53.9393H132.705L141.878 79.2912H135.342L133.825 74.8131ZM132.236 70.0461L129.094 60.7648L125.988 70.0461H132.236Z" fill="#4D4949"/>
<path d="M49.1226 44.5121C49.1739 48.4602 45.9009 51.795 41.568 52.2093V54.5519C41.568 54.9532 41.209 55.2785 40.7661 55.2785C40.3233 55.2785 39.9642 54.9532 39.9642 54.5519V52.2475C35.6516 51.8349 32.3856 48.528 32.4096 44.5982C32.3926 44.3386 32.5298 44.0905 32.7694 43.9473C33.0091 43.8042 33.3147 43.7878 33.5713 43.9043C33.8279 44.0208 33.9964 44.2525 34.0134 44.5121C33.9824 46.1622 34.6768 47.7556 35.9435 48.9412C37.2102 50.1269 38.9453 50.8072 40.7661 50.8324C42.587 50.8072 44.322 50.1269 45.5888 48.9412C46.8555 47.7556 47.5499 46.1622 47.5189 44.5121C47.5189 44.1108 47.8779 43.7854 48.3207 43.7854C48.7636 43.7854 49.1226 44.1108 49.1226 44.5121Z" fill="white"/>
<path fill-rule="evenodd" clip-rule="evenodd" d="M38.7654 34.8591C40.7354 34.1274 42.9977 34.5406 44.5012 35.9066C45.4797 36.7956 46.0331 37.9977 46.0417 39.2532V44.034C46.0417 46.6744 43.6797 48.8149 40.7661 48.8149C37.8525 48.8149 35.4906 46.6744 35.4906 44.034V39.2532C35.5037 37.3239 36.7954 35.5908 38.7654 34.8591ZM41.9042 43.3155V39.0816C41.8942 38.6676 41.4254 38.3337 40.8441 38.3265C40.2643 38.3268 39.7943 38.6615 39.794 39.0745L39.794 43.3085C39.804 43.7225 40.2728 44.0564 40.854 44.0635C41.4339 44.0633 41.9038 43.7285 41.9042 43.3155Z" fill="white"/>
<path d="M132.712 129.804C132.88 129.828 133.133 129.84 133.47 129.84C134.626 129.84 135.468 129.515 135.998 128.865C136.528 128.19 136.793 127.143 136.793 125.723V122.039H127.114V135.871C127.114 137.7 127.547 139.121 128.414 140.132C129.281 141.143 130.521 141.649 132.134 141.649C133.627 141.649 134.794 141.216 135.637 140.349C136.48 139.458 136.901 138.23 136.901 136.665H140.621C140.621 139.241 139.862 141.264 138.346 142.732C136.853 144.177 134.806 144.899 132.206 144.899C129.293 144.899 127.09 144.081 125.597 142.443C124.105 140.806 123.358 138.579 123.358 135.762L123.322 122.039H118.988V118.861H144.268V122.039H140.476V125.831C140.476 128.335 139.995 130.213 139.032 131.465C138.069 132.693 136.492 133.307 134.301 133.307C133.819 133.307 133.29 133.271 132.712 133.198V129.804Z" fill="#757373"/>
<path d="M71.58 84.8771C70.26 76.7496 67.1467 71.0432 63.5237 71.0432C59.9007 71.0432 56.7874 76.7496 55.4675 84.8771H71.58ZM54.7847 93.6143C54.7847 95.6348 54.894 97.5734 55.0851 99.4391H71.9532C72.1443 97.5734 72.2536 95.6348 72.2536 93.6143C72.2536 91.5938 72.1443 89.6552 71.9532 87.7895H55.0851C54.894 89.6552 54.7847 91.5938 54.7847 93.6143ZM84.3425 84.8771C81.739 78.6973 76.4683 73.9192 69.9596 71.9897C72.1808 75.0659 73.7101 79.6985 74.5112 84.8771H84.3425ZM57.0787 71.9897C50.5791 73.9192 45.2993 78.6973 42.7049 84.8771H52.5363C53.3282 79.6985 54.8575 75.0659 57.0787 71.9897ZM85.3165 87.7895H74.8753C75.0664 89.7008 75.1757 91.6575 75.1757 93.6143C75.1757 95.5711 75.0664 97.5278 74.8753 99.4391H85.3074C85.8081 97.5734 86.0903 95.6348 86.0903 93.6143C86.0903 91.5938 85.8081 89.6552 85.3165 87.7895ZM51.8717 93.6143C51.8717 91.6575 51.981 89.7008 52.1721 87.7895H41.7309C41.2393 89.6552 40.948 91.5938 40.948 93.6143C40.948 95.6348 41.2393 97.5734 41.7309 99.4391H52.163C51.981 97.5278 51.8717 95.5711 51.8717 93.6143ZM55.4675 102.352C56.7874 110.479 59.9007 116.185 63.5237 116.185C67.1467 116.185 70.26 110.479 71.58 102.352H55.4675ZM69.9687 115.239C76.4683 113.309 81.7481 108.531 84.3516 102.352H74.5203C73.7192 107.53 72.1899 112.163 69.9687 115.239ZM42.7049 102.352C45.3084 108.531 50.5791 113.309 57.0878 115.239C54.8666 112.163 53.3373 107.53 52.5363 102.352H42.7049Z" fill="white"/>
<g clip-path="url(#clip0_529_11619)">
<path d="M101.467 148.349C101.467 148.661 101.343 148.96 101.123 149.181C100.902 149.401 100.603 149.525 100.292 149.525H86.1847C85.8729 149.525 85.5739 149.401 85.3534 149.181C85.1329 148.96 85.0091 148.661 85.0091 148.349V141.296C85.0091 140.984 85.1329 140.685 85.3534 140.465C85.5739 140.244 85.8729 140.12 86.1847 140.12H87.5624C88.4973 140.12 89.3937 139.748 90.0547 139.087L91.0304 138.114C91.2502 137.894 91.5482 137.77 91.8592 137.769H94.6147C94.9265 137.769 95.2255 137.893 95.4459 138.114L96.4193 139.087C96.7468 139.415 97.1357 139.674 97.5637 139.852C97.9918 140.029 98.4506 140.12 98.9138 140.12H100.292C100.603 140.12 100.902 140.244 101.123 140.465C101.343 140.685 101.467 140.984 101.467 141.296V148.349ZM86.1847 138.945C85.5611 138.945 84.9631 139.192 84.5221 139.633C84.0812 140.074 83.8335 140.672 83.8335 141.296V148.349C83.8335 148.973 84.0812 149.571 84.5221 150.012C84.9631 150.453 85.5611 150.7 86.1847 150.7H100.292C100.915 150.7 101.513 150.453 101.954 150.012C102.395 149.571 102.643 148.973 102.643 148.349V141.296C102.643 140.672 102.395 140.074 101.954 139.633C101.513 139.192 100.915 138.945 100.292 138.945H98.9138C98.2903 138.945 97.6924 138.697 97.2516 138.256L96.2782 137.282C95.8374 136.841 95.2394 136.594 94.6159 136.594H91.8604C91.2368 136.594 90.6389 136.841 90.1981 137.282L89.2247 138.256C88.7839 138.697 88.186 138.945 87.5624 138.945H86.1847Z" fill="white"/>
<path d="M93.2381 147.174C92.4586 147.174 91.7111 146.864 91.1599 146.313C90.6087 145.762 90.2991 145.014 90.2991 144.235C90.2991 143.455 90.6087 142.708 91.1599 142.157C91.7111 141.606 92.4586 141.296 93.2381 141.296C94.0175 141.296 94.765 141.606 95.3162 142.157C95.8674 142.708 96.177 143.455 96.177 144.235C96.177 145.014 95.8674 145.762 95.3162 146.313C94.765 146.864 94.0175 147.174 93.2381 147.174ZM93.2381 148.349C94.3293 148.349 95.3758 147.916 96.1475 147.144C96.9191 146.373 97.3526 145.326 97.3526 144.235C97.3526 143.144 96.9191 142.097 96.1475 141.325C95.3758 140.554 94.3293 140.12 93.2381 140.12C92.1468 140.12 91.1003 140.554 90.3286 141.325C89.557 142.097 89.1235 143.144 89.1235 144.235C89.1235 145.326 89.557 146.373 90.3286 147.144C91.1003 147.916 92.1468 148.349 93.2381 148.349ZM87.3602 141.884C87.3602 142.04 87.2982 142.189 87.188 142.299C87.0778 142.41 86.9283 142.471 86.7724 142.471C86.6165 142.471 86.467 142.41 86.3567 142.299C86.2465 142.189 86.1846 142.04 86.1846 141.884C86.1846 141.728 86.2465 141.578 86.3567 141.468C86.467 141.358 86.6165 141.296 86.7724 141.296C86.9283 141.296 87.0778 141.358 87.188 141.468C87.2982 141.578 87.3602 141.728 87.3602 141.884Z" fill="white"/>
</g>
<defs>
<clipPath id="clip0_529_11619">
<rect width="18.8093" height="18.8093" fill="white" transform="translate(83.8335 134.242)"/>
</clipPath>
</defs>
</svg>
