<svg width="310" height="251" viewBox="0 0 310 251" fill="none" xmlns="http://www.w3.org/2000/svg">
<path d="M28.4508 227.706C19.9814 227.706 16.1265 218.346 16.1265 209.645C16.1265 200.943 19.9814 191.583 28.4508 191.583H233.407C226.236 191.583 226.236 227.706 233.407 227.706H28.4508Z" fill="white"/>
<path d="M28.4509 227.706C19.9815 227.706 16.1266 218.346 16.1266 209.645C16.1266 200.943 19.9815 191.583 28.4509 191.583H236.276V188.358H28.4509C8.18433 188.358 8.18433 230.937 28.4509 230.937H236.276V227.706H28.4509Z" fill="#018B96"/>
<g style="mix-blend-mode:multiply">
<path d="M29.8181 190.228C28.3146 190.219 26.8281 190.548 25.4683 191.189C24.1084 191.831 22.9099 192.769 21.9609 193.936C23.7695 192.393 26.0751 191.558 28.4519 191.583H236.277V190.228H29.8181Z" fill="#D6D6D6"/>
<path d="M29.8178 229.582C13.6386 229.582 10.3846 202.468 20.0332 191.521C8.76327 201.368 11.5637 230.937 28.4516 230.937H236.276V229.582H29.8178Z" fill="#D6D6D6"/>
</g>
<path d="M17.4817 218.267C17.6801 218.862 17.9069 219.441 18.1506 220.002H228.912C228.804 219.435 228.708 218.868 228.617 218.267H17.4817Z" fill="#F3F4F6"/>
<path d="M16.6479 215.053C16.7557 215.62 16.8917 216.187 17.0391 216.788H228.424C228.362 216.221 228.299 215.654 228.248 215.053H16.6479Z" fill="#F3F4F6"/>
<path d="M231.276 226.436C230.875 225.9 230.54 225.317 230.278 224.701H21.2627C21.9351 225.381 22.6982 225.965 23.5303 226.436H231.276Z" fill="#F3F4F6"/>
<path d="M18.8762 221.487C19.1955 222.086 19.5534 222.664 19.9477 223.216H229.7C229.524 222.683 229.371 222.082 229.224 221.487H18.8762Z" fill="#F3F4F6"/>
<path d="M16.2227 211.833C16.2623 212.4 16.3247 212.995 16.4041 213.568H228.146C228.112 213.001 228.084 212.434 228.067 211.833H16.2227Z" fill="#F3F4F6"/>
<path d="M17.1129 202.184C16.9541 202.751 16.8124 203.318 16.6934 203.919H228.282C228.333 203.352 228.396 202.751 228.464 202.184H17.1129Z" fill="#F3F4F6"/>
<path d="M228.038 208.618H16.1602C16.1602 208.959 16.1318 209.304 16.1318 209.645C16.1318 209.883 16.1318 210.115 16.1318 210.353H228.033C228.027 209.775 228.033 209.197 228.038 208.618Z" fill="#F3F4F6"/>
<path d="M24.1256 192.536C23.1989 192.981 22.3446 193.564 21.5916 194.265H230.425C230.715 193.635 231.097 193.052 231.559 192.536H24.1256Z" fill="#F3F4F6"/>
<path d="M20.2307 195.75C19.7977 196.3 19.4037 196.88 19.0515 197.485H229.308C229.467 196.867 229.637 196.288 229.824 195.75H20.2307Z" fill="#F3F4F6"/>
<path d="M18.2861 198.964C18.031 199.531 17.8042 200.098 17.5945 200.699H228.667C228.766 200.102 228.868 199.524 228.974 198.964H18.2861Z" fill="#F3F4F6"/>
<path d="M16.4499 205.399C16.3648 205.965 16.2968 206.532 16.2515 207.133H228.078C228.078 206.566 228.129 205.999 228.169 205.399H16.4499Z" fill="#F3F4F6"/>
<g style="mix-blend-mode:multiply">
<path d="M57.9294 188.346L114.052 212.796C115.166 213.507 116.415 213.98 117.72 214.186C119.025 214.392 120.359 214.326 121.637 213.993L219.58 188.443L57.9294 188.346Z" fill="#C6C6C6"/>
</g>
<path d="M224.881 72.0019V104.173C224.879 104.677 224.679 105.159 224.323 105.515C223.967 105.87 223.485 106.071 222.982 106.072H11.5288C11.2792 106.073 11.0319 106.025 10.8011 105.929C10.5704 105.834 10.3607 105.694 10.1842 105.518C10.0077 105.341 9.86786 105.132 9.77268 104.901C9.67751 104.67 9.6289 104.423 9.62965 104.173V72.0019C9.6289 71.7523 9.67751 71.505 9.77268 71.2743C9.86786 71.0435 10.0077 70.8339 10.1842 70.6574C10.3607 70.4809 10.5704 70.341 10.8011 70.2458C11.0319 70.1507 11.2792 70.102 11.5288 70.1028H222.982C223.485 70.1043 223.967 70.3049 224.323 70.6607C224.679 71.0165 224.879 71.4987 224.881 72.0019Z" fill="#82852A"/>
<path d="M28.4397 70.1028H23.8818V106.078H28.4397V70.1028Z" fill="#FFE9A0"/>
<path d="M215.272 70.1028H206.803V106.078H215.272V70.1028Z" fill="#FFE9A0"/>
<path d="M159.897 75.494H74.6304V100.676H159.897V75.494Z" fill="#FFE9A0"/>
<g style="mix-blend-mode:multiply">
<path d="M224.881 96.4011V104.173C224.879 104.676 224.679 105.159 224.323 105.514C223.967 105.87 223.485 106.071 222.982 106.072H11.5288C11.2792 106.073 11.0319 106.024 10.8011 105.929C10.5704 105.834 10.3607 105.694 10.1842 105.518C10.0077 105.341 9.86786 105.132 9.77268 104.901C9.67751 104.67 9.6289 104.423 9.62965 104.173V96.4011H224.881Z" fill="#E6E6E6"/>
</g>
<path opacity="0.2" d="M224.881 79.7797V72.0019C224.879 71.4987 224.679 71.0165 224.323 70.6607C223.967 70.3049 223.485 70.1043 222.982 70.1028H11.5288C11.2792 70.102 11.0319 70.1507 10.8011 70.2458C10.5704 70.341 10.3607 70.4809 10.1842 70.6574C10.0077 70.8339 9.86786 71.0435 9.77268 71.2743C9.67751 71.505 9.6289 71.7523 9.62965 72.0019V79.7797H224.881Z" fill="white"/>
<g style="mix-blend-mode:multiply">
<path d="M236.281 188.352H26.6028V191.583H236.281V188.352Z" fill="#D1D3D4"/>
</g>
<path d="M239.501 184.123H126.898C117.828 184.123 117.828 155.438 126.898 155.438H239.501C234.649 155.438 234.649 184.123 239.501 184.123Z" fill="white"/>
<path d="M121.524 160.659C119.438 166.385 119.664 175.438 122.193 180.461C123.327 182.683 124.88 184.123 126.898 184.123H243.945V188.358H10.7918C6.55708 188.358 3.58653 185.07 1.8745 180.461C-0.279708 174.678 -0.461115 166.793 1.34729 160.659C2.94594 155.245 6.08088 151.203 10.7918 151.203H243.945V155.438H126.898C124.443 155.438 122.641 157.569 121.524 160.659Z" fill="#B54958"/>
<path d="M241.604 184.123H126.898C117.828 184.123 117.828 155.438 126.898 155.438H243.951V151.203H125.498C111.263 151.203 111.263 188.358 125.498 188.358H243.979V184.123H241.604Z" fill="#ED6073"/>
<path d="M237.494 157.552C237.651 157.141 237.854 156.749 238.101 156.385H124.29C123.863 156.722 123.481 157.115 123.156 157.552H237.494Z" fill="#F3F4F6"/>
<path d="M236.831 159.684C236.927 159.27 237.035 158.885 237.149 158.522H122.511C122.298 158.897 122.109 159.285 121.944 159.684H236.831Z" fill="#F3F4F6"/>
<path d="M236.417 161.821C236.48 161.419 236.548 161.033 236.621 160.653H121.541C121.4 161.033 121.275 161.419 121.156 161.821H236.417Z" fill="#F3F4F6"/>
<path d="M237.494 182.008H123.151C123.477 182.444 123.858 182.837 124.285 183.176H238.101C237.856 182.811 237.652 182.419 237.494 182.008Z" fill="#F3F4F6"/>
<path d="M235.868 169.196H120.118C120.118 169.582 120.118 169.973 120.118 170.364H235.868C235.862 169.973 235.862 169.582 235.868 169.196Z" fill="#F3F4F6"/>
<path d="M236.145 163.958C236.185 163.562 236.23 163.17 236.281 162.791H120.889C120.799 163.17 120.714 163.562 120.64 163.958H236.145Z" fill="#F3F4F6"/>
<path d="M237.149 181.039C237.035 180.676 236.927 180.285 236.831 179.871H121.915C122.08 180.271 122.27 180.661 122.482 181.039H237.149Z" fill="#F3F4F6"/>
<path d="M236.055 174.633C236.055 174.247 235.998 173.862 235.975 173.465H120.328C120.373 173.862 120.424 174.247 120.481 174.633H236.055Z" fill="#F3F4F6"/>
<path d="M235.975 166.09C235.975 165.699 236.026 165.307 236.054 164.928H120.469C120.413 165.307 120.362 165.699 120.316 166.09H235.975Z" fill="#F3F4F6"/>
<path d="M236.621 178.89C236.547 178.516 236.479 178.131 236.417 177.757H121.144C121.263 178.159 121.388 178.545 121.53 178.89H236.621Z" fill="#F3F4F6"/>
<path d="M236.281 176.77C236.23 176.385 236.185 175.999 236.145 175.602H120.64C120.714 175.999 120.799 176.385 120.889 176.77H236.281Z" fill="#F3F4F6"/>
<path d="M235.884 168.227C235.884 167.836 235.884 167.445 235.918 167.059H120.22C120.186 167.445 120.163 167.836 120.146 168.227H235.884Z" fill="#F3F4F6"/>
<path d="M235.935 172.496C235.935 172.11 235.907 171.719 235.901 171.334H120.146C120.146 171.719 120.186 172.11 120.22 172.496H235.935Z" fill="#F3F4F6"/>
<g style="mix-blend-mode:multiply">
<path d="M154.597 197.966L145.628 191.13L136.093 197.966V188.358H154.597V197.966Z" fill="#DADADA"/>
</g>
<path d="M153.939 197.468L144.971 190.631L135.436 197.468V169.78H153.939V197.468Z" fill="#FF7468"/>
<path d="M15.5426 151.203H10.7863C-3.45416 151.203 -3.45416 188.358 10.7863 188.358H15.5426C1.30778 188.358 1.30778 151.203 15.5426 151.203Z" fill="#B54958"/>
<path d="M30.985 151.203H26.2231C11.9826 151.203 11.9826 188.358 26.2231 188.358H30.985C16.7445 188.358 16.7445 151.203 30.985 151.203Z" fill="#FCEA98"/>
<path d="M64.7322 151.203H59.9703C45.7355 151.203 45.7355 188.358 59.9703 188.358H64.7322C50.4804 188.358 50.4804 151.203 64.7322 151.203Z" fill="#FCEA98"/>
<path d="M110.6 151.203H105.838C91.5976 151.203 91.5976 188.358 105.838 188.358H110.6C96.3595 188.358 96.3595 151.203 110.6 151.203Z" fill="#FCEA98"/>
<g style="mix-blend-mode:multiply">
<path d="M243.946 184.123V188.358H10.7921C6.55733 188.358 3.58679 185.07 1.87476 180.461H122.193C123.327 182.683 124.88 184.123 126.898 184.123H243.946Z" fill="#E6E6E6"/>
</g>
<path opacity="0.2" d="M243.946 151.203V155.438H126.898C124.444 155.438 122.641 157.569 121.524 160.659H1.34766C2.94631 155.245 6.08125 151.203 10.7922 151.203H243.946Z" fill="white"/>
<path d="M191.485 28.4188H102.896C95.77 28.4188 95.77 4.42764 102.896 4.42764H191.485C187.664 4.42764 187.664 28.4188 191.485 28.4188Z" fill="white"/>
<path d="M98.6667 8.82109C97.0227 13.6057 97.2041 21.1795 99.1939 25.3745C100.067 27.2396 101.303 28.4414 102.896 28.4414H194.983V31.9789H11.5516C8.21821 31.9789 5.88259 29.2351 4.53337 25.3745C2.83835 20.5219 2.69662 13.9232 4.11954 8.82109C5.37805 4.28591 7.84406 0.884521 11.5516 0.884521H194.983V4.42763H102.896C100.963 4.42763 99.5454 6.20769 98.6667 8.82109Z" fill="#92278F"/>
<path d="M193.146 28.4187H102.895C95.7696 28.4187 95.7696 4.42763 102.895 4.42763H194.982V0.884521H101.796C90.5938 0.884521 90.5938 31.9618 101.796 31.9618H194.982V28.4187H193.146Z" fill="#671B65"/>
<path d="M189.903 6.19629C190.028 5.85483 190.19 5.52791 190.385 5.22122H100.844C100.503 5.50481 100.202 5.83274 99.948 6.19629H189.903Z" fill="#F3F4F6"/>
<path d="M189.382 7.98211C189.461 7.63631 189.546 7.30751 189.631 7.00705H99.4437C99.2689 7.3231 99.1118 7.64862 98.9731 7.98211H189.382Z" fill="#F3F4F6"/>
<path d="M189.058 9.76779C189.109 9.42765 189.16 9.10452 189.217 8.79272H98.6666C98.5646 9.10452 98.4625 9.42765 98.3718 9.76779H189.058Z" fill="#F3F4F6"/>
<path d="M189.903 26.65H99.948C100.202 27.0135 100.503 27.3415 100.844 27.6251H190.414C190.208 27.3196 190.037 26.9927 189.903 26.65Z" fill="#F3F4F6"/>
<path d="M188.628 15.9357H97.5615C97.5615 16.2588 97.5615 16.5819 97.5615 16.9107H188.628C188.622 16.5819 188.622 16.2588 188.628 15.9357Z" fill="#F3F4F6"/>
<path d="M188.843 11.5536C188.877 11.2191 188.911 10.896 188.951 10.5785H98.1794C98.1057 10.896 98.0433 11.2191 97.981 11.5536H188.843Z" fill="#F3F4F6"/>
<path d="M189.631 25.828C189.546 25.5219 189.461 25.1988 189.382 24.853H98.9731C99.1129 25.186 99.27 25.5114 99.4437 25.828H189.631Z" fill="#F3F4F6"/>
<path d="M188.775 20.4822C188.747 20.1591 188.73 19.836 188.707 19.5072H97.7141C97.7538 19.836 97.7935 20.1591 97.8388 20.4822H188.775Z" fill="#F3F4F6"/>
<path d="M188.707 13.3563C188.707 13.0275 188.747 12.6987 188.775 12.3812H97.8388C97.7935 12.6987 97.7538 13.0275 97.7141 13.3563H188.707Z" fill="#F3F4F6"/>
<path d="M189.217 24.0536C189.16 23.7418 189.109 23.413 189.058 23.0785H98.3547C98.4454 23.413 98.5475 23.7418 98.6495 24.0536H189.217Z" fill="#F3F4F6"/>
<path d="M188.951 22.2679C188.911 21.9504 188.877 21.6216 188.843 21.2928H97.9695C98.0318 21.6216 98.0942 21.9504 98.1679 22.2679H188.951Z" fill="#F3F4F6"/>
<path d="M188.639 15.1249C188.639 14.7961 188.639 14.473 188.668 14.1499H97.6409C97.6126 14.473 97.5956 14.7961 97.5842 15.1249H188.639Z" fill="#F3F4F6"/>
<path d="M188.667 18.6964C188.667 18.3733 188.667 18.0445 188.639 17.7213H97.6123C97.6123 18.0445 97.6407 18.3733 97.669 18.6964H188.667Z" fill="#F3F4F6"/>
<path d="M27.4362 0.884521H23.689C12.4871 0.884521 12.4871 31.9618 23.689 31.9618H27.4362C16.2343 31.9618 16.2343 0.884521 27.4362 0.884521Z" fill="white"/>
<path d="M35.3613 0.884521H31.6141C20.4122 0.884521 20.4122 31.9618 31.6141 31.9618H35.3613C24.1594 31.9618 24.1594 0.884521 35.3613 0.884521Z" fill="white"/>
<path d="M48.485 0.884521H44.7378C33.5529 0.884521 33.5529 31.9618 44.7378 31.9618H48.485C37.2831 31.9618 37.2831 0.884521 48.485 0.884521Z" fill="white"/>
<path d="M56.4103 0.884521H52.6631C41.4896 0.884521 41.4896 31.9618 52.6631 31.9618H56.4103C45.2028 31.9618 45.2028 0.884521 56.4103 0.884521Z" fill="white"/>
<g style="mix-blend-mode:multiply">
<path d="M194.982 28.4187V31.9561H11.5514C8.21804 31.9561 5.88242 29.2123 4.5332 25.3518H99.2051C100.078 27.2169 101.314 28.4187 102.907 28.4187H194.982Z" fill="#E6E6E6"/>
</g>
<path opacity="0.2" d="M194.983 0.884521V4.42763H102.896C100.963 4.42763 99.5455 6.20769 98.6668 8.79841H4.11963C5.37814 4.28591 7.84415 0.884521 11.5517 0.884521H194.983Z" fill="white"/>
<path d="M248.543 146.617C257.013 146.617 260.873 137.252 260.873 128.556C260.873 119.859 257.013 110.494 248.543 110.494H43.5928C50.7697 110.494 50.7697 146.617 43.5928 146.617H248.543Z" fill="white"/>
<path d="M248.543 146.617C257.012 146.617 260.873 137.252 260.873 128.556C260.873 119.859 257.012 110.494 248.543 110.494H40.7183V107.263H248.543C268.81 107.263 268.81 149.843 248.543 149.843H40.7183V146.617H248.543Z" fill="#018B96"/>
<path d="M259.518 137.178C259.318 137.775 259.097 138.353 258.855 138.913H48.0879C48.1956 138.346 48.2976 137.779 48.3827 137.178H259.518Z" fill="#F3F4F6"/>
<path d="M260.357 133.958C260.244 134.525 260.114 135.126 259.96 135.693H48.5757C48.6437 135.126 48.7004 134.559 48.7514 133.958H260.357Z" fill="#F3F4F6"/>
<path d="M45.7241 145.341C46.1249 144.817 46.46 144.246 46.7219 143.641H255.737C255.061 144.307 254.299 144.88 253.469 145.341H45.7241Z" fill="#F3F4F6"/>
<path d="M258.124 140.392C257.799 140.994 257.435 141.573 257.035 142.127H47.283C47.4587 141.56 47.6174 140.993 47.7648 140.392H258.124Z" fill="#F3F4F6"/>
<path d="M260.782 130.744C260.737 131.322 260.675 131.9 260.595 132.479H48.8591C48.8931 131.912 48.9215 131.345 48.9442 130.744H260.782Z" fill="#F3F4F6"/>
<path d="M259.875 121.067C260.034 121.634 260.17 122.201 260.289 122.802H48.723C48.6663 122.235 48.6096 121.634 48.5359 121.067H259.875Z" fill="#F3F4F6"/>
<path d="M48.9609 127.524H260.845C260.845 127.87 260.873 128.215 260.873 128.555C260.873 128.788 260.873 129.026 260.873 129.258H48.9666C48.9723 128.68 48.9723 128.102 48.9609 127.524Z" fill="#F3F4F6"/>
<path d="M252.874 111.43C253.801 111.877 254.655 112.462 255.408 113.164H46.5916C46.2999 112.534 45.9179 111.95 45.4578 111.43H252.874Z" fill="#F3F4F6"/>
<path d="M256.775 114.655C257.208 115.205 257.602 115.785 257.954 116.39H47.6914C47.5327 115.772 47.3626 115.199 47.1755 114.655H256.775Z" fill="#F3F4F6"/>
<path d="M258.713 117.875C258.968 118.442 259.201 119.009 259.411 119.61H48.332C48.2413 119.009 48.1393 118.431 48.0259 117.875H258.713Z" fill="#F3F4F6"/>
<path d="M260.55 124.309C260.633 124.88 260.701 125.458 260.754 126.044H48.9215C48.9215 125.477 48.8704 124.882 48.8364 124.309H260.55Z" fill="#F3F4F6"/>
<path d="M248.543 151.203C259.921 151.203 265.102 139.463 265.102 128.527C265.102 117.592 259.921 105.851 248.543 105.851L40.7183 105.766V111.77L248.543 111.849C256.083 111.849 259.512 120.511 259.512 128.556C259.512 136.6 256.111 145.256 248.543 145.256L40.7183 145.177V151.112L248.543 151.203Z" fill="#1392BD"/>
<g style="mix-blend-mode:multiply">
<path d="M253.407 113.306C251.621 110.783 249.115 109.134 245.827 109.134L40.7183 109.054V111.77L248.543 111.849C250.274 111.831 251.97 112.339 253.407 113.306Z" fill="#E6E6E6"/>
<path d="M257.256 108.844C260.737 113.266 262.387 119.689 262.387 125.851C262.387 136.759 257.205 148.527 245.827 148.527L40.7183 148.448V151.112L248.543 151.197C259.921 151.197 265.102 139.457 265.102 128.521C265.102 120.976 262.579 113.011 257.256 108.844Z" fill="#E6E6E6"/>
</g>
<path d="M44.5565 66.1571C41.0531 64.8532 38.4964 57.92 38.6835 50.0062C38.8592 42.6365 41.3195 36.5423 44.4545 35.5786H240.346C235.901 35.5786 235.901 66.1571 240.346 66.1571H44.5565Z" fill="white"/>
<path d="M38.6835 50.0119C38.4964 57.9484 41.0588 64.8532 44.5622 66.1571H244.269V70.0857H43.9783C31.4612 66.9564 31.8864 34.0707 43.9783 31.6501H244.269V35.5787H44.4602C41.3139 36.5481 38.8536 42.6309 38.6835 50.0119Z" fill="#F07855"/>
<path d="M38.7629 53.1638C38.8026 53.7307 38.8593 54.2976 38.9273 54.8645H237.115C237.086 54.2976 237.064 53.7307 237.047 53.1638H38.7629Z" fill="#E3E7EA"/>
<path d="M237.018 50.0686H38.6833C38.6833 50.6355 38.6833 51.2024 38.6833 51.7693H237.018C237.012 51.208 237.012 50.6355 237.018 50.0686Z" fill="#E3E7EA"/>
<path d="M238.594 64.1617C238.387 63.606 238.215 63.038 238.078 62.461H41.0588C41.3589 63.0582 41.7118 63.6274 42.1133 64.1617H238.594Z" fill="#E3E7EA"/>
<path d="M39.8398 59.3543C40.0213 59.9609 40.2197 60.5221 40.4067 61.055H237.789C237.693 60.4881 237.602 59.9212 237.523 59.3543H39.8398Z" fill="#E3E7EA"/>
<path d="M39.1311 56.259C39.2275 56.8259 39.3465 57.3928 39.4712 57.9597H237.358C237.296 57.3928 237.25 56.8259 237.205 56.259H39.1311Z" fill="#E3E7EA"/>
<path d="M41.892 37.6818C41.5158 38.2209 41.184 38.7897 40.8999 39.3825H238.05C238.183 38.8059 238.352 38.2379 238.554 37.6818H41.892Z" fill="#E3E7EA"/>
<path d="M40.3159 40.7772C40.1118 41.3441 39.9191 41.911 39.749 42.4779H237.506C237.585 41.8769 237.676 41.31 237.772 40.7772H40.3159Z" fill="#E3E7EA"/>
<path d="M38.8932 46.9733C38.8309 47.5402 38.7799 48.1071 38.7458 48.674H237.069C237.069 48.1071 237.103 47.5402 237.137 46.9733H38.8932Z" fill="#E3E7EA"/>
<path d="M39.4088 43.8781C39.2841 44.445 39.1764 45.0119 39.0857 45.5788H237.199C237.239 45.0119 237.284 44.445 237.341 43.8781H39.4088Z" fill="#E3E7EA"/>
<g style="mix-blend-mode:multiply">
<path d="M146.366 31.6501V70.0857H43.9783C31.4612 66.9564 31.8864 34.0707 43.9783 31.6501H146.366Z" fill="#EDEDED"/>
</g>
<g style="mix-blend-mode:multiply">
<path d="M83.4343 70.0801L146.53 98.2152L203.157 70.0801H83.4343Z" fill="#C6C6C6"/>
</g>
<g style="mix-blend-mode:multiply">
<path d="M67.5669 31.497L94.8233 46.3781C95.326 46.8008 95.9275 47.0895 96.5717 47.2174C97.216 47.3452 97.8821 47.3081 98.5082 47.1094L146.071 31.5594L67.5669 31.497Z" fill="#C6C6C6"/>
</g>
<path d="M297.846 228.239L185.181 140.874L175.328 153.59L287.988 240.949C298.067 240.569 300.953 238.318 297.846 228.239Z" fill="#034E6E"/>
<path d="M83.1451 166.152C71.3986 157.963 62.3442 146.475 57.1269 133.14C51.9095 119.806 50.7635 105.223 53.8338 91.2373C56.9041 77.2513 64.0528 64.4897 74.3759 54.5666C84.699 44.6434 97.7328 38.0042 111.829 35.4886C125.926 32.9729 140.451 34.6939 153.57 40.4337C166.688 46.1736 177.81 55.6746 185.528 67.7352C193.247 79.7959 197.216 93.8745 196.933 108.191C196.65 122.507 192.128 136.418 183.939 148.164C178.503 155.965 171.584 162.618 163.576 167.744C155.568 172.87 146.628 176.368 137.268 178.038C127.908 179.708 118.311 179.519 109.024 177.479C99.7378 175.44 90.9439 171.591 83.1451 166.152ZM177.057 143.363C184.301 132.978 188.301 120.678 188.553 108.019C188.805 95.36 185.297 82.9107 178.472 72.2457C171.648 61.5808 161.814 53.1794 150.214 48.1043C138.614 43.0291 125.77 41.5082 113.306 43.7339C100.841 45.9596 89.3169 51.832 80.1905 60.6081C71.0641 69.3843 64.7455 80.6701 62.0339 93.0378C59.3224 105.406 60.3398 118.3 64.9573 130.089C69.5749 141.879 77.5852 152.034 87.975 159.27C101.899 168.968 119.105 172.74 135.809 169.757C152.514 166.774 167.35 157.281 177.057 143.363Z" fill="#034E6E"/>
<mask id="mask0_529_10142" style="mask-type:luminance" maskUnits="userSpaceOnUse" x="60" y="42" width="129" height="129">
<path d="M87.9752 159.27C77.5894 152.031 69.5835 141.875 64.9699 130.085C60.3563 118.296 59.3423 105.404 62.056 93.0381C64.7698 80.6726 71.0895 69.3895 80.2158 60.6157C89.3422 51.8418 100.865 45.9714 113.328 43.7467C125.791 41.5219 138.634 43.0428 150.232 48.1171C161.83 53.1913 171.664 61.5909 178.488 72.2538C185.313 82.9166 188.822 95.3637 188.573 108.021C188.323 120.678 184.326 132.977 177.086 143.363C172.28 150.259 166.162 156.141 159.082 160.672C152.003 165.204 144.1 168.296 135.825 169.774C127.55 171.251 119.066 171.083 110.856 169.281C102.645 167.479 94.8706 164.077 87.9752 159.27Z" fill="white"/>
</mask>
<g mask="url(#mask0_529_10142)">
<path d="M253.838 51.1175V95.3355C253.835 96.0272 253.559 96.6896 253.069 97.1781C252.58 97.6667 251.917 97.9417 251.225 97.9432H-39.3271C-39.6697 97.944 -40.0092 97.877 -40.3259 97.7463C-40.6426 97.6155 -40.9304 97.4234 -41.1727 97.1811C-41.415 96.9388 -41.607 96.651 -41.7378 96.3343C-41.8686 96.0176 -41.9356 95.6782 -41.9348 95.3355V51.1175C-41.9356 50.7746 -41.8687 50.4349 -41.7379 50.1178C-41.6072 49.8008 -41.4153 49.5126 -41.173 49.2699C-40.9308 49.0271 -40.6431 48.8345 -40.3263 48.7031C-40.0096 48.5717 -39.67 48.5041 -39.3271 48.5041H251.242C251.932 48.5101 252.591 48.7879 253.077 49.2772C253.563 49.7665 253.837 50.4278 253.838 51.1175Z" fill="#82852A"/>
<path d="M164.535 55.9192H47.3633V90.5226H164.535V55.9192Z" fill="#FFE9A0"/>
<g style="mix-blend-mode:multiply">
<path d="M253.838 84.6438V95.3298C253.835 96.0215 253.559 96.6839 253.069 97.1725C252.58 97.661 251.917 97.9361 251.225 97.9376H-39.3271C-39.6697 97.9383 -40.0092 97.8714 -40.3259 97.7406C-40.6426 97.6098 -40.9304 97.4177 -41.1727 97.1754C-41.415 96.9331 -41.607 96.6454 -41.7378 96.3287C-41.8686 96.0119 -41.9356 95.6725 -41.9348 95.3298V84.6438H253.838Z" fill="#E6E6E6"/>
</g>
<path opacity="0.2" d="M253.838 61.8035V51.1175C253.837 50.4278 253.563 49.7665 253.077 49.2772C252.591 48.7879 251.932 48.5101 251.242 48.5041H-39.3271C-39.67 48.5041 -40.0096 48.5717 -40.3263 48.7031C-40.6431 48.8345 -40.9308 49.0271 -41.173 49.2699C-41.4153 49.5126 -41.6072 49.8008 -41.7379 50.1178C-41.8687 50.4349 -41.9356 50.7746 -41.9348 51.1175V61.8035H253.838Z" fill="white"/>
<path d="M273.918 205.189H119.155C106.712 205.189 106.712 165.772 119.155 165.772H273.918C267.263 165.772 267.263 205.189 273.918 205.189Z" fill="white"/>
<path d="M111.785 172.95C108.917 180.824 109.234 193.256 112.704 200.161C114.229 203.216 116.394 205.195 119.172 205.195H280.035V211.011H-40.3701C-46.1865 211.011 -50.2738 206.476 -52.6208 200.161C-55.5857 192.224 -55.8294 181.379 -53.3464 172.95C-51.1468 165.512 -46.8441 159.956 -40.3701 159.956H280.035V165.773H119.189C115.816 165.773 113.333 168.686 111.785 172.95Z" fill="#B54958"/>
<path d="M276.832 205.189H119.189C106.746 205.189 106.746 165.772 119.189 165.772H280.041V159.95H117.267C97.698 159.95 97.698 211.011 117.267 211.011H280.041V205.189H276.832Z" fill="#ED6073"/>
<path d="M271.169 168.686C271.386 168.121 271.668 167.583 272.008 167.082H115.606C115.02 167.546 114.497 168.085 114.053 168.686H271.169Z" fill="#F3F4F6"/>
<path d="M270.256 171.612C270.392 171.045 270.54 170.512 270.693 170.007H113.157C112.855 170.526 112.582 171.062 112.341 171.612H270.256Z" fill="#F3F4F6"/>
<path d="M96.7854 159.95H90.2434C70.6741 159.95 70.6741 211.011 90.2434 211.011H96.7797C77.2047 211.011 77.2047 159.95 96.7854 159.95Z" fill="#FCEA98"/>
<path opacity="0.2" d="M280.035 159.956V165.773H119.189C115.816 165.773 113.333 168.703 111.819 172.95H-53.3464C-51.1469 165.512 -46.8441 159.956 -40.3701 159.956H280.035Z" fill="white"/>
<path d="M286.356 153.652C297.994 153.652 303.295 140.784 303.295 128.833C303.295 116.883 297.994 104.009 286.356 104.009H4.70972C14.5681 104.009 14.5681 153.652 4.70972 153.652H286.356Z" fill="white"/>
<path d="M286.356 153.652C297.994 153.652 303.295 140.784 303.295 128.834C303.295 116.883 297.994 104.009 286.356 104.009H0.758545V99.5703H286.356C314.208 99.5703 314.208 158.085 286.356 158.085H0.758545V153.652H286.356Z" fill="#018B96"/>
<path d="M301.435 140.682C301.163 141.498 300.868 142.292 300.522 143.063H10.8774C11.0286 142.307 11.1647 141.513 11.2856 140.682H301.435Z" fill="#F3F4F6"/>
<path d="M302.586 136.26C302.433 137.065 302.252 137.859 302.019 138.641H11.5579C11.6486 137.859 11.7279 137.065 11.796 136.26H302.586Z" fill="#F3F4F6"/>
<path d="M7.63501 151.906C8.18864 151.17 8.64942 150.368 9.0069 149.52H296.243C295.31 150.453 294.255 151.255 293.108 151.906H7.63501Z" fill="#F3F4F6"/>
<path d="M299.519 145.103C299.074 145.929 298.574 146.725 298.023 147.484H9.78906C10.0272 146.742 10.2426 145.937 10.4467 145.103H299.519Z" fill="#F3F4F6"/>
<path d="M303.17 131.838C303.113 132.637 303.028 133.431 302.921 134.219H11.9377C11.9888 133.431 12.0228 132.637 12.0511 131.838H303.17Z" fill="#F3F4F6"/>
<path d="M301.929 118.573C302.144 119.355 302.331 120.149 302.496 120.959H11.7566C11.6829 120.149 11.5978 119.355 11.5015 118.573H301.929Z" fill="#F3F4F6"/>
<path d="M12.085 127.416H303.255C303.255 127.887 303.295 128.363 303.295 128.833C303.295 129.151 303.295 129.474 303.295 129.797H12.0906C12.102 129.004 12.102 128.21 12.085 127.416Z" fill="#F3F4F6"/>
<path d="M292.308 105.313C293.581 105.929 294.754 106.731 295.789 107.694H8.80273C8.41469 106.831 7.90288 106.028 7.28345 105.313H292.308Z" fill="#F3F4F6"/>
<path d="M297.665 109.729C298.261 110.484 298.803 111.279 299.286 112.11H10.3387C10.1233 111.265 9.88523 110.472 9.63013 109.729H297.665Z" fill="#F3F4F6"/>
<path d="M300.33 114.157C300.681 114.922 300.999 115.721 301.282 116.538H11.2235C11.0931 115.716 10.9571 114.922 10.7983 114.157H300.33Z" fill="#F3F4F6"/>
<path d="M302.858 122.994C302.972 123.788 303.062 124.582 303.13 125.381H12.0114C11.983 124.576 11.9434 123.782 11.8923 122.994H302.858Z" fill="#F3F4F6"/>
<path d="M286.356 159.95C301.991 159.95 309.111 143.822 309.111 128.833C309.111 113.845 301.991 97.705 286.356 97.705L0.758545 97.5973V105.761L286.356 105.874C296.713 105.874 301.43 117.779 301.43 128.833C301.43 139.888 296.713 151.787 286.356 151.787L0.758545 151.679V159.843L286.356 159.95Z" fill="#1392BD"/>
<g style="mix-blend-mode:multiply">
<path d="M293.034 107.881C290.585 104.411 287.144 102.144 282.625 102.144L0.758301 102.036V105.761L286.356 105.874C288.734 105.851 291.062 106.551 293.034 107.881Z" fill="#E6E6E6"/>
<path d="M298.329 101.741C303.113 107.824 305.381 116.645 305.381 125.103C305.381 140.092 298.261 156.226 282.626 156.226L0.758545 156.113V159.843L286.356 159.95C301.991 159.95 309.111 143.822 309.111 128.833C309.111 118.42 305.664 107.461 298.329 101.741Z" fill="#E6E6E6"/>
</g>
<path d="M6.03062 43.0789C1.24034 41.2932 -2.29143 31.7636 -2.03633 20.8848C-1.79823 10.7487 1.58048 2.38697 5.90024 1.04343H275.086C268.98 1.04343 268.98 43.0619 275.086 43.0619L6.03062 43.0789Z" fill="white"/>
<path d="M-2.03644 20.8962C-2.29721 31.7636 1.22322 41.3045 6.03618 43.0789H280.483V48.5041H5.23686C-11.9685 44.207 -11.3789 -0.986039 5.23686 -4.3194H280.483V1.06046H5.89446C1.5747 2.39834 -1.80401 10.7544 -2.03644 20.8962Z" fill="#F07855"/>
<g style="mix-blend-mode:multiply">
<path d="M145.901 -4.3421V48.5041H5.23686C-11.9685 44.207 -11.3789 -0.986068 5.23686 -4.31943L145.901 -4.3421Z" fill="#EDEDED"/>
</g>
<g style="mix-blend-mode:multiply">
<path d="M59.4551 48.4814L146.168 87.1381L223.98 48.4814H59.4551Z" fill="#C6C6C6"/>
</g>
</g>
<path opacity="0.24" d="M87.9752 159.27C77.5894 152.031 69.5835 141.875 64.9699 130.085C60.3563 118.296 59.3423 105.404 62.056 93.0381C64.7698 80.6726 71.0895 69.3895 80.2158 60.6157C89.3422 51.8418 100.865 45.9714 113.328 43.7467C125.791 41.5219 138.634 43.0428 150.232 48.1171C161.83 53.1913 171.664 61.5909 178.488 72.2538C185.313 82.9166 188.822 95.3637 188.573 108.021C188.323 120.678 184.326 132.977 177.086 143.363C172.28 150.259 166.162 156.141 159.082 160.672C152.003 165.204 144.1 168.296 135.825 169.774C127.55 171.251 119.066 171.083 110.856 169.281C102.645 167.479 94.8706 164.077 87.9752 159.27Z" fill="#C7DCFF"/>
<g style="mix-blend-mode:screen" opacity="0.61">
<path d="M177.913 127.762L175.907 126.486C179.851 114.524 179.838 101.609 175.871 89.6537C171.903 77.6987 164.191 67.339 153.877 60.1083L156.003 56.741C167.763 63.8004 176.502 74.9529 180.546 88.0595C184.589 101.166 183.652 115.304 177.913 127.762Z" fill="white"/>
</g>
<path d="M306.401 242.91L304.576 245.28C302.469 248.007 299.366 249.786 295.949 250.226C292.531 250.666 289.079 249.731 286.35 247.627L190.306 173.488C189.383 172.774 188.781 171.723 188.632 170.565C188.483 169.408 188.8 168.239 189.512 167.314L201.837 151.35C202.19 150.893 202.63 150.509 203.131 150.221C203.633 149.934 204.186 149.748 204.759 149.674C205.332 149.6 205.915 149.64 206.473 149.792C207.03 149.943 207.553 150.203 208.01 150.557L304.054 224.69C306.781 226.795 308.56 229.897 309 233.314C309.44 236.731 308.505 240.182 306.401 242.91Z" fill="#EC463A"/>
<g style="mix-blend-mode:multiply">
<path d="M165.947 47.3701C150.916 36.8936 132.471 32.5071 114.333 35.0952C96.1956 37.6833 79.7141 47.0535 68.2134 61.3157L74.8574 66.4462C85.2952 53.5739 100.319 45.2526 116.768 43.2334C133.217 41.2142 149.808 45.6546 163.049 55.6201C176.291 65.5856 185.15 80.299 187.763 96.6642C190.375 113.029 186.538 129.77 177.058 143.363C176.757 143.794 176.44 144.202 176.134 144.621L305.307 244.333L306.401 242.91C308.505 240.182 309.44 236.731 309 233.314C308.56 229.897 306.781 226.795 304.054 224.69L208.01 150.545C207.553 150.192 207.03 149.932 206.473 149.781C205.915 149.629 205.332 149.589 204.759 149.663C204.186 149.737 203.633 149.922 203.131 150.21C202.63 150.498 202.19 150.881 201.837 151.339L200.658 152.864L187.432 142.609C196.379 126.916 199.136 108.444 195.16 90.8225C191.185 73.2007 180.765 57.7019 165.947 47.3701Z" fill="#BCBEC0"/>
</g>
</svg>
