<svg width="14" height="19" viewBox="0 0 14 19" fill="none" xmlns="http://www.w3.org/2000/svg">
<path d="M6.5 13.5544H7.5V7.90137H6.5V13.5544ZM7 6.32437C7.17467 6.32437 7.321 6.26537 7.439 6.14737C7.55633 6.02937 7.615 5.88337 7.615 5.70937C7.615 5.5347 7.556 5.38837 7.438 5.27037C7.32 5.15237 7.174 5.0937 7 5.09437C6.826 5.09503 6.68 5.15403 6.562 5.27137C6.444 5.3887 6.385 5.53503 6.385 5.71037C6.385 5.8857 6.444 6.0317 6.562 6.14837C6.68 6.26503 6.826 6.3237 7 6.32437ZM7 18.2864C4.99067 17.6897 3.32167 16.4727 1.993 14.6354C0.664333 12.798 0 10.7277 0 8.42437V3.01637L7 0.401367L14 3.01637V8.42437C14 10.727 13.3357 12.797 12.007 14.6344C10.6783 16.4717 9.00933 17.6884 7 18.2864ZM7 17.2254C8.73333 16.6754 10.1667 15.5754 11.3 13.9254C12.4333 12.2754 13 10.442 13 8.42537V3.69937L7 1.46937L1 3.69937V8.42437C1 10.441 1.56667 12.2744 2.7 13.9244C3.83333 15.5744 5.26667 16.6754 7 17.2254Z" fill="#4F4F4F"/>
</svg>
