<svg width="15" height="17" viewBox="0 0 15 17" fill="none" xmlns="http://www.w3.org/2000/svg">
<path d="M12.25 5.82437C13.4926 5.82437 14.5 4.81701 14.5 3.57437C14.5 2.33173 13.4926 1.32437 12.25 1.32437C11.0074 1.32437 10 2.33173 10 3.57437C10 4.81701 11.0074 5.82437 12.25 5.82437Z" stroke="#4F4F4F" stroke-linecap="round" stroke-linejoin="round"/>
<path d="M3.25 11.0744C4.49264 11.0744 5.5 10.067 5.5 8.82437C5.5 7.58173 4.49264 6.57437 3.25 6.57437C2.00736 6.57437 1 7.58173 1 8.82437C1 10.067 2.00736 11.0744 3.25 11.0744Z" stroke="#4F4F4F" stroke-linecap="round" stroke-linejoin="round"/>
<path d="M12.25 16.3244C13.4926 16.3244 14.5 15.317 14.5 14.0744C14.5 12.8317 13.4926 11.8244 12.25 11.8244C11.0074 11.8244 10 12.8317 10 14.0744C10 15.317 11.0074 16.3244 12.25 16.3244Z" stroke="#4F4F4F" stroke-linecap="round" stroke-linejoin="round"/>
<path d="M5.125 9.94937L10.375 12.9494M10.375 4.69937L5.125 7.69937" stroke="#4F4F4F" stroke-linecap="round" stroke-linejoin="round"/>
</svg>
