<svg width="394" height="439" viewBox="0 0 394 439" fill="none" xmlns="http://www.w3.org/2000/svg">
<path opacity="0.2" fill-rule="evenodd" clip-rule="evenodd" d="M420.996 99.5573L424.263 102.38L427.458 105.29L430.579 108.284L433.623 111.361L436.588 114.517L439.471 117.749L442.271 121.056L444.985 124.434L447.611 127.88L450.147 131.391L452.591 134.965L454.941 138.598L457.195 142.287L459.349 146.031L461.404 149.824L463.355 153.665L465.202 157.551L466.942 161.477L468.573 165.441L470.095 169.439L471.505 173.469L472.802 177.526L473.985 181.607L475.053 185.709L476.005 189.827L476.84 193.959L477.558 198.101L478.158 202.249L478.64 206.4L479.004 210.549L479.25 214.694L479.378 218.831L479.389 222.957L479.282 227.067L479.058 231.159L478.718 235.229L478.262 239.273L477.692 243.289L477.007 247.273L476.21 251.222L475.301 255.133L474.283 259.003L473.157 262.829L471.925 266.607L470.591 270.336L469.156 274.013L467.622 277.635L465.994 281.2L464.275 284.706L462.466 288.15L460.573 291.532L458.597 294.85L456.545 298.101L454.418 301.286L452.221 304.402L449.958 307.449L447.633 310.427L445.251 313.334L442.815 316.171L440.33 318.938L437.801 321.634L435.231 324.261L432.625 326.817L429.988 329.306L427.323 331.726L424.635 334.08L421.929 336.369L419.208 338.594L416.477 340.756L413.739 342.858L410.998 344.902L408.259 346.889L405.524 348.821L402.798 350.702L400.084 352.533L397.385 354.317L394.703 356.057L392.043 357.754L389.406 359.413L386.795 361.035L384.213 362.624L381.661 364.181L379.141 365.711L376.656 367.216L374.206 368.699L371.793 370.162L369.418 371.608L367.081 373.04L364.784 374.461L362.527 375.872L360.309 377.277L358.131 378.677L355.992 380.074L353.89 381.47L351.824 382.865L349.792 384.26L347.791 385.655L345.819 387.05L343.872 388.444L341.948 389.837L340.044 391.227L338.156 392.612L336.281 393.992L334.415 395.364L332.557 396.726L330.702 398.076L328.848 399.412L326.991 400.73L325.129 402.028L323.26 403.305L321.381 404.556L319.491 405.781L317.588 406.976L315.67 408.139L313.736 409.269L311.786 410.363L309.819 411.421L307.835 412.441L305.834 413.422L303.817 414.364L301.785 415.268L299.738 416.132L297.677 416.958L295.603 417.746L293.518 418.497L291.422 419.21L289.316 419.888L287.202 420.531L285.08 421.141L282.952 421.718L280.82 422.264L278.683 422.781L276.544 423.27L274.403 423.733L272.261 424.171L270.119 424.587L267.978 424.982L265.839 425.357L263.702 425.715L261.567 426.058L259.436 426.386L257.309 426.702L255.185 427.008L253.066 427.304L250.951 427.592L248.839 427.874L246.732 428.15L244.629 428.421L242.529 428.689L240.432 428.955L238.338 429.219L236.246 429.48L234.155 429.741L232.066 430.001L229.977 430.261L227.888 430.519L225.799 430.776L223.707 431.032L221.613 431.286L219.517 431.538L217.416 431.787L215.311 432.032L213.201 432.272L211.085 432.507L208.963 432.736L206.834 432.957L204.698 433.169L202.553 433.372L200.401 433.564L198.239 433.745L196.069 433.912L193.888 434.066L191.699 434.205L189.499 434.328L187.289 434.434L185.069 434.524L182.839 434.597L180.598 434.655L178.346 434.697L176.082 434.727L173.807 434.745L171.52 434.754L169.22 434.755L166.906 434.751L164.578 434.744L162.234 434.737L159.872 434.732L157.493 434.732L155.093 434.739L152.672 434.755L150.227 434.783L147.757 434.824L145.26 434.88L142.734 434.951L140.176 435.04L137.585 435.147L134.958 435.271L132.295 435.413L129.591 435.571L126.847 435.745L124.06 435.933L121.229 436.132L118.353 436.339L115.431 436.551L112.462 436.765L109.446 436.976L106.382 437.182L103.271 437.377L100.112 437.557L96.9073 437.718L93.6562 437.857L90.36 437.967L87.0201 438.044L83.6381 438.084L80.2156 438.083L76.755 438.034L73.2584 437.934L69.7286 437.778L66.1684 437.561L62.5811 437.279L58.97 436.928L55.3389 436.503L51.6917 436L48.0324 435.415L44.3654 434.745L40.6952 433.985L37.0266 433.134L33.3643 432.187L29.7135 431.143L26.0792 429.998L22.4667 428.751L18.8812 427.4L15.3282 425.943L11.813 424.379L8.34113 422.707L4.91787 420.928L1.54862 419.04L-1.76128 417.044L-5.00666 414.94L-8.18234 412.731L-11.2834 410.415L-14.305 407.997L-17.2425 405.476L-20.0914 402.856L-22.8475 400.14L-25.5068 397.329L-28.0657 394.427L-30.5207 391.438L-32.8687 388.365L-35.1067 385.212L-37.2325 381.984L-39.2437 378.683L-41.1386 375.316L-42.9159 371.887L-44.5743 368.399L-46.1134 364.859L-47.5326 361.271L-48.8323 357.641L-50.0127 353.972L-51.0747 350.27L-52.0195 346.541L-52.8487 342.788L-53.5639 339.017L-54.1674 335.233L-54.6617 331.44L-55.0496 327.642L-55.334 323.845L-55.5184 320.052L-55.6062 316.267L-55.6014 312.494L-55.5077 308.737L-55.3295 304.998L-55.0711 301.282L-54.7369 297.59L-54.3316 293.926L-53.8598 290.291L-53.3263 286.689L-52.7357 283.12L-52.0929 279.586L-51.4026 276.089L-50.6695 272.63L-49.898 269.209L-49.0927 265.827L-48.2578 262.484L-47.3973 259.18L-46.5152 255.916L-45.615 252.69L-44.7002 249.503L-43.7744 246.354L-42.8408 243.241L-41.9027 240.165L-40.9632 237.123L-40.0253 234.115L-39.092 231.14L-38.1659 228.195L-37.2497 225.279L-36.3459 222.391L-35.4569 219.529L-34.5848 216.69L-33.7318 213.873L-32.8996 211.077L-32.09 208.298L-31.3047 205.535L-30.545 202.785L-29.8121 200.047L-29.1072 197.318L-28.4313 194.596L-27.7849 191.879L-27.1688 189.164L-26.5834 186.45L-26.0289 183.733L-25.5054 181.013L-25.0129 178.286L-24.551 175.551L-24.1195 172.806L-23.7177 170.048L-23.3448 167.276L-23.0001 164.488L-22.6824 161.683L-22.3906 158.858L-22.1234 156.012L-21.8791 153.144L-21.6563 150.252L-21.453 147.335L-21.2674 144.393L-21.0975 141.424L-20.941 138.428L-20.7956 135.403L-20.659 132.35L-20.5285 129.268L-20.4016 126.157L-20.2755 123.017L-20.1474 119.849L-20.0143 116.653L-19.8733 113.428L-19.7213 110.178L-19.5551 106.901L-19.3716 103.6L-19.1676 100.275L-18.9397 96.9296L-18.6847 93.5639L-18.3988 90.1806L-18.0783 86.7826L-17.7187 83.373L-17.3158 79.9554L-16.8649 76.5339L-16.3612 73.113L-15.8001 69.6975L-15.1767 66.2928L-14.4864 62.9045L-13.7245 59.5384L-12.8865 56.2009L-11.968 52.8984L-10.965 49.6376L-9.87363 46.4253L-8.69027 43.2686L-7.4117 40.1746L-6.03499 37.1505L-4.55759 34.2034L-2.97736 31.3404L-1.2926 28.5688L0.498029 25.8956L2.39538 23.3274L4.39987 20.871L6.51147 18.5329L8.72963 16.3191L11.0534 14.2354L13.4813 12.2874L16.0116 10.4801L18.6418 8.8182L21.3691 7.3058L24.1904 5.94662L27.1019 4.74379L30.0997 3.69987L33.1793 2.81688L36.3361 2.09623L39.5649 1.53873L42.8606 1.14456L46.2173 0.913332L49.6295 0.843976L53.0911 0.934841L56.596 1.18366L60.138 1.58754L63.7109 2.14299L67.3083 2.84599L70.9239 3.69191L74.5514 4.67561L78.1845 5.79144L81.8174 7.03323L85.4439 8.39441L89.0584 9.86793L92.6553 11.4464L96.2291 13.1222L99.775 14.887L103.288 16.7327L106.764 18.6507L110.198 20.6323L113.588 22.6685L116.928 24.7506L120.217 26.8694L123.452 29.016L126.631 31.1814L129.751 33.3569L132.812 35.5336L135.811 37.7032L138.75 39.8572L141.627 41.9877L144.443 44.087L147.198 46.1476L149.893 48.1625L152.53 50.1253L155.11 52.0297L157.635 53.87L160.107 55.6411L162.53 57.3384L164.905 58.9577L167.236 60.4954L169.526 61.9486L171.778 63.3148L173.996 64.5922L176.184 65.7794L178.345 66.8758L180.483 67.8813L182.601 68.7963L184.704 69.6215L186.796 70.3579L188.879 71.0067L190.959 71.5691L193.037 72.0468L195.119 72.4414L197.208 72.7552L199.306 72.9902L201.418 73.1492L203.546 73.2348L205.695 73.2501L207.866 73.1983L210.063 73.0828L212.288 72.9075L214.544 72.6759L216.834 72.3923L219.16 72.0606L221.523 71.6852L223.926 71.2703L226.371 70.8203L228.859 70.3395L231.391 69.8324L233.97 69.3032L236.595 68.7561L239.268 68.1952L241.991 67.6244L244.763 67.0475L247.586 66.468L250.46 65.8891L253.387 65.314L256.366 64.7459L259.398 64.1884L262.483 63.6448L265.622 63.1188L268.814 62.6139L272.058 62.134L275.355 61.6828L278.703 61.264L282.102 60.8815L285.551 60.5392L289.048 60.2408L292.592 59.9901L296.181 59.791L299.814 59.647L303.488 59.5619L307.201 59.5392L310.951 59.5823L314.736 59.6948L318.553 59.8797L322.398 60.1404L326.269 60.4796L330.163 60.9003L334.077 61.4052L338.007 61.9968L341.95 62.6774L345.902 63.4492L349.86 64.3141L353.82 65.2741L357.777 66.3304L361.729 67.4847L365.671 68.738L369.6 70.0913L373.511 71.5453L377.4 73.1005L381.265 74.7573L385.099 76.5156L388.901 78.3755L392.665 80.3364L396.388 82.398L400.066 84.5595L403.696 86.8197L407.274 89.1778L410.797 91.6321L414.26 94.1814L417.661 96.8237L420.996 99.5573Z" fill="url(#paint0_radial_529_10140)"/>
<defs>
<radialGradient id="paint0_radial_529_10140" cx="0" cy="0" r="1" gradientUnits="userSpaceOnUse" gradientTransform="translate(192.289 233.84) rotate(-170.799) scale(236.28 225.186)">
<stop stop-color="#74CABB"/>
<stop offset="1" stop-color="#2FAC9D" stop-opacity="0.996078"/>
</radialGradient>
</defs>
</svg>
