<svg width="391" height="315" viewBox="0 0 391 315" fill="none" xmlns="http://www.w3.org/2000/svg">
<path opacity="0.2" fill-rule="evenodd" clip-rule="evenodd" d="M364.667 120.133L365.499 121.477L366.339 122.828L367.185 124.186L368.036 125.55L368.892 126.923L369.752 128.305L370.614 129.696L371.477 131.097L372.339 132.508L373.2 133.93L374.057 135.364L374.908 136.81L375.752 138.269L376.587 139.74L377.412 141.225L378.224 142.724L379.022 144.237L379.804 145.764L380.57 147.306L381.317 148.862L382.044 150.433L382.75 152.018L383.434 153.619L384.093 155.234L384.727 156.864L385.334 158.509L385.913 160.168L386.462 161.842L386.98 163.531L387.467 165.233L387.919 166.949L388.337 168.679L388.718 170.422L389.062 172.178L389.367 173.946L389.631 175.727L389.855 177.519L390.036 179.322L390.174 181.136L390.268 182.96L390.316 184.794L390.317 186.636L390.271 188.487L390.176 190.345L390.031 192.21L389.835 194.082L389.586 195.958L389.285 197.839L388.929 199.723L388.517 201.61L388.048 203.498L387.522 205.387L386.938 207.275L386.293 209.162L385.589 211.046L384.822 212.926L383.994 214.8L383.103 216.668L382.148 218.529L381.129 220.38L380.046 222.222L378.898 224.051L377.685 225.867L376.406 227.669L375.062 229.456L373.653 231.224L372.178 232.975L370.639 234.705L369.035 236.414L367.367 238.1L365.636 239.762L363.843 241.399L361.987 243.009L360.071 244.591L358.095 246.144L356.061 247.666L353.97 249.157L351.823 250.615L349.622 252.039L347.368 253.428L345.064 254.782L342.711 256.099L340.311 257.379L337.866 258.621L335.379 259.823L332.85 260.987L330.284 262.11L327.681 263.193L325.044 264.235L322.375 265.236L319.677 266.195L316.952 267.113L314.203 267.989L311.432 268.824L308.642 269.617L305.834 270.369L303.012 271.079L300.177 271.749L297.332 272.378L294.48 272.967L291.622 273.516L288.761 274.026L285.899 274.498L283.038 274.932L280.181 275.329L277.328 275.69L274.484 276.015L271.648 276.305L268.823 276.562L266.011 276.786L263.213 276.978L260.431 277.139L257.668 277.272L254.924 277.377L252.202 277.457L249.503 277.512L246.829 277.545L244.181 277.559L241.561 277.554L238.971 277.534L236.411 277.5L233.882 277.455L231.386 277.401L228.923 277.342L226.494 277.279L224.1 277.215L221.74 277.152L219.416 277.094L217.127 277.042L214.872 277L212.653 276.971L210.468 276.956L208.316 276.959L206.198 276.983L204.111 277.029L202.056 277.102L200.031 277.203L198.034 277.336L196.064 277.502L194.119 277.703L192.197 277.942L190.296 278.22L188.414 278.539L186.548 278.899L184.695 279.302L182.854 279.749L181.022 280.24L179.195 280.775L177.372 281.353L175.549 281.976L173.724 282.642L171.894 283.35L170.057 284.099L168.21 284.888L166.351 285.715L164.477 286.579L162.587 287.476L160.677 288.406L158.747 289.365L156.795 290.351L154.818 291.361L152.817 292.391L150.788 293.438L148.733 294.5L146.649 295.572L144.537 296.651L142.396 297.733L140.226 298.814L138.028 299.891L135.801 300.959L133.548 302.015L131.267 303.054L128.962 304.072L126.632 305.067L124.28 306.033L121.908 306.967L119.517 307.865L117.11 308.723L114.689 309.539L112.256 310.308L109.815 311.027L107.369 311.694L104.919 312.305L102.47 312.857L100.024 313.349L97.5846 313.777L95.1552 314.14L92.7391 314.435L90.3395 314.662L87.9598 314.818L85.6032 314.903L83.2731 314.915L80.9727 314.854L78.705 314.719L76.4731 314.511L74.2799 314.23L72.1282 313.875L70.0206 313.447L67.9596 312.948L65.9475 312.378L63.9865 311.739L62.0784 311.032L60.2249 310.259L58.4275 309.422L56.6875 308.523L55.0059 307.564L53.3835 306.548L51.8207 305.478L50.3176 304.357L48.8742 303.187L47.4898 301.972L46.1636 300.716L44.8945 299.423L43.6809 298.096L42.5211 296.738L41.4128 295.355L40.3539 293.949L39.3415 292.526L38.3729 291.088L37.4449 289.64L36.5542 288.186L35.6973 286.729L34.8705 285.273L34.0702 283.821L33.2925 282.377L32.5333 280.944L31.7889 279.524L31.0553 278.122L30.3284 276.738L29.6047 275.375L28.8802 274.036L28.1514 272.721L27.4149 271.433L26.6674 270.172L25.9057 268.94L25.1269 267.737L24.3281 266.563L23.5066 265.42L22.6598 264.307L21.7855 263.223L20.8816 262.17L19.946 261.146L18.9774 260.151L17.9741 259.184L16.9352 258.244L15.8598 257.329L14.7473 256.44L13.5974 255.573L12.4101 254.728L11.1858 253.902L9.92503 253.095L8.62867 252.303L7.29791 251.526L5.93422 250.76L4.53935 250.005L3.11533 249.257L1.66446 248.514L0.189302 247.774L-1.30733 247.035L-2.82241 246.295L-4.35266 245.551L-5.89459 244.801L-7.44456 244.043L-8.99871 243.275L-10.553 242.494L-12.1034 241.699L-13.6456 240.889L-15.1752 240.06L-16.6878 239.212L-18.1788 238.343L-19.6439 237.452L-21.0784 236.537L-22.4778 235.597L-23.8376 234.631L-25.1534 233.638L-26.4207 232.618L-27.6354 231.57L-28.7933 230.494L-29.8904 229.389L-30.9228 228.255L-31.8869 227.093L-32.7792 225.903L-33.5965 224.685L-34.3356 223.44L-34.994 222.168L-35.5691 220.87L-36.0586 219.548L-36.4605 218.201L-36.7734 216.833L-36.9957 215.443L-37.1266 214.034L-37.1652 212.606L-37.1113 211.162L-36.9647 209.703L-36.7257 208.23L-36.3949 206.747L-35.9733 205.254L-35.4621 203.753L-34.8627 202.246L-34.1772 200.736L-33.4076 199.224L-32.5564 197.711L-31.6264 196.2L-30.6204 194.693L-29.5418 193.191L-28.3944 191.696L-27.182 190.209L-25.9092 188.733L-24.5805 187.269L-23.2009 185.818L-21.7756 184.381L-20.3098 182.96L-18.809 181.556L-17.2788 180.169L-15.7249 178.801L-14.1528 177.451L-12.5684 176.121L-10.9772 174.811L-9.38474 173.521L-7.79662 172.25L-6.21813 170.999L-4.65444 169.767L-3.11055 168.555L-1.59122 167.36L-0.100972 166.183L1.35593 165.022L2.77554 163.877L4.15419 162.746L5.48857 161.628L6.7757 160.522L8.01293 159.427L9.19793 158.34L10.3286 157.261L11.4033 156.188L12.4204 155.119L13.3787 154.052L14.2774 152.986L15.1159 151.92L15.8939 150.85L16.6115 149.777L17.2688 148.697L17.8664 147.61L18.4053 146.513L18.8866 145.405L19.3117 144.285L19.6821 143.151L19.9999 142.002L20.2671 140.836L20.4861 139.651L20.6595 138.448L20.7899 137.224L20.8804 135.979L20.934 134.712L20.9539 133.422L20.9436 132.108L20.9065 130.771L20.8462 129.408L20.7664 128.021L20.6708 126.609L20.5633 125.172L20.4475 123.711L20.3275 122.224L20.2069 120.713L20.0897 119.178L19.9797 117.62L19.8805 116.039L19.796 114.436L19.7296 112.812L19.6849 111.168L19.6654 109.505L19.6743 107.824L19.7149 106.127L19.7901 104.415L19.903 102.689L20.0562 100.951L20.2524 99.203L20.494 97.4455L20.7832 95.6808L21.1221 93.9104L21.5126 92.1361L21.9564 90.3597L22.455 88.5828L23.0097 86.8072L23.6218 85.0347L24.292 83.267L25.0212 81.5059L25.8099 79.753L26.6586 78.01L27.5674 76.2785L28.5364 74.5601L29.5653 72.8563L30.654 71.1686L31.802 69.4984L33.0086 67.8471L34.2732 66.2158L35.5948 64.6058L36.9724 63.0183L38.405 61.4542L39.8913 59.9145L41.43 58.4L43.0197 56.9117L44.6589 55.4501L46.346 54.0157L48.0792 52.6089L49.8564 51.2297L51.6758 49.878L53.5351 48.5536L55.4322 47.2561L57.365 45.9847L59.3313 44.739L61.3291 43.5179L63.3562 42.3206L65.4107 41.1459L67.4906 39.993L69.5942 38.8604L71.7198 37.7472L73.8658 36.652L76.0307 35.5737L78.2134 34.511L80.4125 33.463L82.6272 32.4284L84.8565 31.4062L87.0998 30.3957L89.3564 29.3959L91.6259 28.4063L93.908 27.4263L96.2024 26.4557L98.5092 25.4942L100.828 24.5418L103.159 23.5987L105.503 22.6648L107.858 21.7404L110.226 20.8258L112.606 19.9212L114.999 19.027L117.405 18.1438L119.822 17.272L122.253 16.4123L124.696 15.5653L127.151 14.7318L129.619 13.9125L132.1 13.1083L134.593 12.32L137.098 11.5485L139.614 10.7949L142.143 10.06L144.683 9.3449L147.233 8.65062L149.794 7.97818L152.365 7.32863L154.946 6.703L157.535 6.10231L160.132 5.52761L162.737 4.97987L165.348 4.46009L167.965 3.96921L170.587 3.50812L173.213 3.0777L175.842 2.67878L178.473 2.31212L181.105 1.97843L183.737 1.67838L186.367 1.41257L188.995 1.18151L191.62 0.98569L194.24 0.825495L196.855 0.701241L199.462 0.6132L202.062 0.561543L204.652 0.546384L207.233 0.567756L209.802 0.625628L212.358 0.719891L214.902 0.850381L217.43 1.01686L219.944 1.21902L222.441 1.4565L224.921 1.7289L227.384 2.03573L229.827 2.37648L232.251 2.75059L234.654 3.15746L237.037 3.59643L239.398 4.06686L241.737 4.56803L244.054 5.09923L246.347 5.65973L248.617 6.24879L250.863 6.86565L253.085 7.50957L255.282 8.17979L257.454 8.87558L259.602 9.5962L261.724 10.3409L263.82 11.1091L265.891 11.9001L267.936 12.7131L269.955 13.5477L271.948 14.4031L273.914 15.2789L275.854 16.1745L277.768 17.0893L279.655 18.0228L281.515 18.9744L283.348 19.9438L285.155 20.9303L286.934 21.9337L288.687 22.9535L290.412 23.9893L292.11 25.0407L293.78 26.1075L295.423 27.1893L297.039 28.2858L298.626 29.3968L300.185 30.5218L301.716 31.6607L303.22 32.8131L304.694 33.9787L306.141 35.1572L307.559 36.3481L308.949 37.551L310.311 38.7655L311.645 39.9909L312.951 41.2268L314.231 42.4723L315.485 43.7269L316.712 44.9897L317.915 46.2601L319.093 47.5376L320.247 48.8215L321.378 50.1113L322.486 51.4066L323.572 52.7067L324.636 54.0113L325.68 55.3199L326.703 56.6322L327.706 57.9478L328.69 59.2662L329.655 60.5873L330.601 61.9106L331.531 63.236L332.443 64.563L333.339 65.8914L334.219 67.2211L335.083 68.5516L335.934 69.8829L336.77 71.2147L337.593 72.5468L338.403 73.8789L339.201 75.211L339.988 76.5428L340.764 77.8742L341.531 79.205L342.288 80.5351L343.037 81.8642L343.779 83.1925L344.514 84.5196L345.243 85.8456L345.967 87.1703L346.686 88.4937L347.403 89.8157L348.116 91.1364L348.828 92.4558L349.539 93.7738L350.251 95.0905L350.963 96.4061L351.676 97.7205L352.392 99.0339L353.111 100.347L353.835 101.658L354.562 102.97L355.296 104.281L356.035 105.593L356.78 106.905L357.533 108.217L358.293 109.531L359.061 110.846L359.836 112.163L360.621 113.483L361.413 114.805L362.214 116.13L363.024 117.46L363.841 118.794L364.667 120.133Z" fill="url(#paint0_radial_529_10370)"/>
<defs>
<radialGradient id="paint0_radial_529_10370" cx="0" cy="0" r="1" gradientUnits="userSpaceOnUse" gradientTransform="translate(200.215 155.864) rotate(-156.152) scale(183.866 174.081)">
<stop stop-color="#74CABB"/>
<stop offset="1" stop-color="#3DB6A1" stop-opacity="0.996078"/>
</radialGradient>
</defs>
</svg>
